<?xml version="1.0" encoding="us-ascii" standalone="no"?><svg xmlns="http://www.w3.org/2000/svg" xmlns:xlink="http://www.w3.org/1999/xlink" contentStyleType="text/css" height="549px" preserveAspectRatio="none" style="width:430px;height:549px;background:#FFFFFF;" version="1.1" viewBox="0 0 430 549" width="430px" zoomAndPan="magnify"><defs/><g><rect fill="none" height="254.959" style="stroke:#000000;stroke-width:1.5;" width="367" x="56" y="194.4941"/><line style="stroke:#181818;stroke-width:0.5;stroke-dasharray:5.0,5.0;" x1="22" x2="22" y1="83.6211" y2="466.4531"/><line style="stroke:#181818;stroke-width:0.5;stroke-dasharray:5.0,5.0;" x1="98" x2="98" y1="83.6211" y2="466.4531"/><line style="stroke:#181818;stroke-width:0.5;stroke-dasharray:5.0,5.0;" x1="196" x2="196" y1="83.6211" y2="466.4531"/><line style="stroke:#181818;stroke-width:0.5;stroke-dasharray:5.0,5.0;" x1="311" x2="311" y1="83.6211" y2="466.4531"/><line style="stroke:#181818;stroke-width:0.5;stroke-dasharray:5.0,5.0;" x1="381" x2="381" y1="83.6211" y2="466.4531"/><text fill="#000000" font-family="sans-serif" font-size="14" lengthAdjust="spacing" textLength="29" x="5" y="80.1074">User</text><ellipse cx="22.5" cy="13.5" fill="#E2E2F0" rx="8" ry="8" style="stroke:#181818;stroke-width:0.5;"/><path d="M22.5,21.5 L22.5,48.5 M9.5,29.5 L35.5,29.5 M22.5,48.5 L9.5,63.5 M22.5,48.5 L35.5,63.5 " fill="none" style="stroke:#181818;stroke-width:0.5;"/><text fill="#000000" font-family="sans-serif" font-size="14" lengthAdjust="spacing" textLength="29" x="5" y="480.5605">User</text><ellipse cx="22.5" cy="492.5742" fill="#E2E2F0" rx="8" ry="8" style="stroke:#181818;stroke-width:0.5;"/><path d="M22.5,500.5742 L22.5,527.5742 M9.5,508.5742 L35.5,508.5742 M22.5,527.5742 L9.5,542.5742 M22.5,527.5742 L35.5,542.5742 " fill="none" style="stroke:#181818;stroke-width:0.5;"/><rect fill="#E2E2F0" height="32.6211" rx="2.5" ry="2.5" style="stroke:#181818;stroke-width:0.5;" width="65" x="66" y="50"/><text fill="#000000" font-family="sans-serif" font-size="14" lengthAdjust="spacing" textLength="51" x="73" y="72.1074">Browser</text><rect fill="#E2E2F0" height="32.6211" rx="2.5" ry="2.5" style="stroke:#181818;stroke-width:0.5;" width="65" x="66" y="465.4531"/><text fill="#000000" font-family="sans-serif" font-size="14" lengthAdjust="spacing" textLength="51" x="73" y="487.5605">Browser</text><rect fill="#E2E2F0" height="32.6211" rx="2.5" ry="2.5" style="stroke:#181818;stroke-width:0.5;" width="111" x="141" y="50"/><text fill="#000000" font-family="sans-serif" font-size="14" lengthAdjust="spacing" textLength="97" x="148" y="72.1074">Service Worker</text><rect fill="#E2E2F0" height="32.6211" rx="2.5" ry="2.5" style="stroke:#181818;stroke-width:0.5;" width="111" x="141" y="465.4531"/><text fill="#000000" font-family="sans-serif" font-size="14" lengthAdjust="spacing" textLength="97" x="148" y="487.5605">Service Worker</text><rect fill="#E2E2F0" height="32.6211" rx="2.5" ry="2.5" style="stroke:#181818;stroke-width:0.5;" width="55" x="284" y="50"/><text fill="#000000" font-family="sans-serif" font-size="14" lengthAdjust="spacing" textLength="41" x="291" y="72.1074">Cache</text><rect fill="#E2E2F0" height="32.6211" rx="2.5" ry="2.5" style="stroke:#181818;stroke-width:0.5;" width="55" x="284" y="465.4531"/><text fill="#000000" font-family="sans-serif" font-size="14" lengthAdjust="spacing" textLength="41" x="291" y="487.5605">Cache</text><rect fill="#E2E2F0" height="32.6211" rx="2.5" ry="2.5" style="stroke:#181818;stroke-width:0.5;" width="64" x="349" y="50"/><text fill="#000000" font-family="sans-serif" font-size="14" lengthAdjust="spacing" textLength="50" x="356" y="72.1074">Network</text><rect fill="#E2E2F0" height="32.6211" rx="2.5" ry="2.5" style="stroke:#181818;stroke-width:0.5;" width="64" x="349" y="465.4531"/><text fill="#000000" font-family="sans-serif" font-size="14" lengthAdjust="spacing" textLength="50" x="356" y="487.5605">Network</text><polygon fill="#181818" points="86.5,112.9121,96.5,116.9121,86.5,120.9121,90.5,116.9121" style="stroke:#181818;stroke-width:1.0;"/><line style="stroke:#181818;stroke-width:1.0;" x1="22.5" x2="92.5" y1="116.9121" y2="116.9121"/><text fill="#000000" font-family="sans-serif" font-size="13" lengthAdjust="spacing" textLength="52" x="29.5" y="111.6494">&#35775;&#38382;&#39029;&#38754;</text><polygon fill="#181818" points="184.5,144.2031,194.5,148.2031,184.5,152.2031,188.5,148.2031" style="stroke:#181818;stroke-width:1.0;"/><line style="stroke:#181818;stroke-width:1.0;" x1="98.5" x2="190.5" y1="148.2031" y2="148.2031"/><text fill="#000000" font-family="sans-serif" font-size="13" lengthAdjust="spacing" textLength="52" x="105.5" y="142.9404">&#25318;&#25130;&#35831;&#27714;</text><polygon fill="#181818" points="299.5,175.4941,309.5,179.4941,299.5,183.4941,303.5,179.4941" style="stroke:#181818;stroke-width:1.0;"/><line style="stroke:#181818;stroke-width:1.0;" x1="196.5" x2="305.5" y1="179.4941" y2="179.4941"/><text fill="#000000" font-family="sans-serif" font-size="13" lengthAdjust="spacing" textLength="52" x="203.5" y="174.2314">&#26816;&#26597;&#32531;&#23384;</text><path d="M56,194.4941 L117,194.4941 L117,203.7852 L107,213.7852 L56,213.7852 L56,194.4941 " fill="#EEEEEE" style="stroke:#000000;stroke-width:1.5;"/><rect fill="none" height="254.959" style="stroke:#000000;stroke-width:1.5;" width="367" x="56" y="194.4941"/><text fill="#000000" font-family="sans-serif" font-size="13" font-weight="bold" lengthAdjust="spacing" textLength="16" x="71" y="209.5225">alt</text><text fill="#000000" font-family="sans-serif" font-size="11" font-weight="bold" lengthAdjust="spacing" textLength="52" x="132" y="208.3643">[&#32531;&#23384;&#21629;&#20013;]</text><polygon fill="#181818" points="207.5,233.0762,197.5,237.0762,207.5,241.0762,203.5,237.0762" style="stroke:#181818;stroke-width:1.0;"/><line style="stroke:#181818;stroke-width:1.0;stroke-dasharray:2.0,2.0;" x1="201.5" x2="310.5" y1="237.0762" y2="237.0762"/><text fill="#000000" font-family="sans-serif" font-size="13" lengthAdjust="spacing" textLength="91" x="213.5" y="231.8135">&#36820;&#22238;&#32531;&#23384;&#30340;&#36164;&#28304;</text><polygon fill="#181818" points="109.5,264.3672,99.5,268.3672,109.5,272.3672,105.5,268.3672" style="stroke:#181818;stroke-width:1.0;"/><line style="stroke:#181818;stroke-width:1.0;" x1="103.5" x2="195.5" y1="268.3672" y2="268.3672"/><text fill="#000000" font-family="sans-serif" font-size="13" lengthAdjust="spacing" textLength="52" x="115.5" y="263.1045">&#36820;&#22238;&#36164;&#28304;</text><line style="stroke:#000000;stroke-width:1.0;stroke-dasharray:2.0,2.0;" x1="56" x2="423" y1="277.3672" y2="277.3672"/><text fill="#000000" font-family="sans-serif" font-size="11" font-weight="bold" lengthAdjust="spacing" textLength="63" x="61" y="289.2373">[&#32531;&#23384;&#26410;&#21629;&#20013;]</text><polygon fill="#181818" points="369,312.2891,379,316.2891,369,320.2891,373,316.2891" style="stroke:#181818;stroke-width:1.0;"/><line style="stroke:#181818;stroke-width:1.0;" x1="196.5" x2="375" y1="316.2891" y2="316.2891"/><text fill="#000000" font-family="sans-serif" font-size="13" lengthAdjust="spacing" textLength="78" x="203.5" y="311.0264">&#21457;&#36865;&#32593;&#32476;&#35831;&#27714;</text><polygon fill="#181818" points="207.5,343.5801,197.5,347.5801,207.5,351.5801,203.5,347.5801" style="stroke:#181818;stroke-width:1.0;"/><line style="stroke:#181818;stroke-width:1.0;stroke-dasharray:2.0,2.0;" x1="201.5" x2="380" y1="347.5801" y2="347.5801"/><text fill="#000000" font-family="sans-serif" font-size="13" lengthAdjust="spacing" textLength="52" x="213.5" y="342.3174">&#36820;&#22238;&#36164;&#28304;</text><polygon fill="#181818" points="299.5,374.8711,309.5,378.8711,299.5,382.8711,303.5,378.8711" style="stroke:#181818;stroke-width:1.0;"/><line style="stroke:#181818;stroke-width:1.0;" x1="196.5" x2="305.5" y1="378.8711" y2="378.8711"/><text fill="#000000" font-family="sans-serif" font-size="13" lengthAdjust="spacing" textLength="52" x="203.5" y="373.6084">&#26356;&#26032;&#32531;&#23384;</text><polygon fill="#181818" points="207.5,406.1621,197.5,410.1621,207.5,414.1621,203.5,410.1621" style="stroke:#181818;stroke-width:1.0;"/><line style="stroke:#181818;stroke-width:1.0;stroke-dasharray:2.0,2.0;" x1="201.5" x2="310.5" y1="410.1621" y2="410.1621"/><text fill="#000000" font-family="sans-serif" font-size="13" lengthAdjust="spacing" textLength="52" x="213.5" y="404.8994">&#32531;&#23384;&#25104;&#21151;</text><polygon fill="#181818" points="109.5,437.4531,99.5,441.4531,109.5,445.4531,105.5,441.4531" style="stroke:#181818;stroke-width:1.0;"/><line style="stroke:#181818;stroke-width:1.0;" x1="103.5" x2="195.5" y1="441.4531" y2="441.4531"/><text fill="#000000" font-family="sans-serif" font-size="13" lengthAdjust="spacing" textLength="52" x="115.5" y="436.1904">&#36820;&#22238;&#36164;&#28304;</text><!--SRC=[IqmkoIzI22rEBU8gI2mgoKpEB4ZCAr5mAielHnTJ2aujAijCJbK8po_AJYrIKaWiLWWEHr7Yd9YSaOeYufTQKWvKpiK5ia91rmvcifN2YtNxNqvVztBXrfTp5t51HK4AWiEj59vrBtlMiUh5-ktFDZPn1OU3XC560sKMDpoRl_JvdibFryxWuahCAL60i9zEtFjanrek1I00grJGXHhrOl-KfxFdGHGzdzNoOclBirqJmEeWvYBS0rO8bK_DAKw5clnipYeamo6QeBwoKdZQF_5bG-FplHEVxvu3TIv85LGUpH4OTiFyD7lBisaRe7x2z07K6HqJddRD9-pml1Gk0000]--></g></svg>