<?xml version="1.0" encoding="us-ascii" standalone="no"?><svg xmlns="http://www.w3.org/2000/svg" xmlns:xlink="http://www.w3.org/1999/xlink" contentStyleType="text/css" height="706px" preserveAspectRatio="none" style="width:656px;height:706px;background:#FFFFFF;" version="1.1" viewBox="0 0 656 706" width="656px" zoomAndPan="magnify"><defs/><g><rect fill="none" height="443.0449" style="stroke:#000000;stroke-width:1.5;" width="639" x="10" y="163.2031"/><rect fill="none" height="236.668" style="stroke:#000000;stroke-width:1.5;" width="619" x="20" y="314.6582"/><line style="stroke:#181818;stroke-width:0.5;stroke-dasharray:5.0,5.0;" x1="47" x2="47" y1="83.6211" y2="623.248"/><line style="stroke:#181818;stroke-width:0.5;stroke-dasharray:5.0,5.0;" x1="149" x2="149" y1="83.6211" y2="623.248"/><line style="stroke:#181818;stroke-width:0.5;stroke-dasharray:5.0,5.0;" x1="303" x2="303" y1="83.6211" y2="623.248"/><line style="stroke:#181818;stroke-width:0.5;stroke-dasharray:5.0,5.0;" x1="500" x2="500" y1="83.6211" y2="623.248"/><line style="stroke:#181818;stroke-width:0.5;stroke-dasharray:5.0,5.0;" x1="579" x2="579" y1="83.6211" y2="623.248"/><text fill="#000000" font-family="sans-serif" font-size="14" lengthAdjust="spacing" textLength="28" x="30" y="80.1074">&#29992;&#25143;</text><ellipse cx="47" cy="13.5" fill="#E2E2F0" rx="8" ry="8" style="stroke:#181818;stroke-width:0.5;"/><path d="M47,21.5 L47,48.5 M34,29.5 L60,29.5 M47,48.5 L34,63.5 M47,48.5 L60,63.5 " fill="none" style="stroke:#181818;stroke-width:0.5;"/><text fill="#000000" font-family="sans-serif" font-size="14" lengthAdjust="spacing" textLength="28" x="30" y="637.3555">&#29992;&#25143;</text><ellipse cx="47" cy="649.3691" fill="#E2E2F0" rx="8" ry="8" style="stroke:#181818;stroke-width:0.5;"/><path d="M47,657.3691 L47,684.3691 M34,665.3691 L60,665.3691 M47,684.3691 L34,699.3691 M47,684.3691 L60,699.3691 " fill="none" style="stroke:#181818;stroke-width:0.5;"/><rect fill="#E2E2F0" height="32.6211" rx="2.5" ry="2.5" style="stroke:#181818;stroke-width:0.5;" width="56" x="121" y="50"/><text fill="#000000" font-family="sans-serif" font-size="14" lengthAdjust="spacing" textLength="42" x="128" y="72.1074">&#27983;&#35272;&#22120;</text><rect fill="#E2E2F0" height="32.6211" rx="2.5" ry="2.5" style="stroke:#181818;stroke-width:0.5;" width="56" x="121" y="622.248"/><text fill="#000000" font-family="sans-serif" font-size="14" lengthAdjust="spacing" textLength="42" x="128" y="644.3555">&#27983;&#35272;&#22120;</text><rect fill="#E2E2F0" height="32.6211" rx="2.5" ry="2.5" style="stroke:#181818;stroke-width:0.5;" width="40" x="283" y="50"/><text fill="#000000" font-family="sans-serif" font-size="14" lengthAdjust="spacing" textLength="26" x="290" y="72.1074">next</text><rect fill="#E2E2F0" height="32.6211" rx="2.5" ry="2.5" style="stroke:#181818;stroke-width:0.5;" width="40" x="283" y="622.248"/><text fill="#000000" font-family="sans-serif" font-size="14" lengthAdjust="spacing" textLength="26" x="290" y="644.3555">next</text><rect fill="#E2E2F0" height="32.6211" rx="2.5" ry="2.5" style="stroke:#181818;stroke-width:0.5;" width="40" x="480" y="50"/><text fill="#000000" font-family="sans-serif" font-size="14" lengthAdjust="spacing" textLength="26" x="487" y="72.1074">java</text><rect fill="#E2E2F0" height="32.6211" rx="2.5" ry="2.5" style="stroke:#181818;stroke-width:0.5;" width="40" x="480" y="622.248"/><text fill="#000000" font-family="sans-serif" font-size="14" lengthAdjust="spacing" textLength="26" x="487" y="644.3555">java</text><rect fill="#E2E2F0" height="32.6211" rx="2.5" ry="2.5" style="stroke:#181818;stroke-width:0.5;" width="99" x="530" y="50"/><text fill="#000000" font-family="sans-serif" font-size="14" lengthAdjust="spacing" textLength="85" x="537" y="72.1074">openai&#23458;&#25143;&#31471;</text><rect fill="#E2E2F0" height="32.6211" rx="2.5" ry="2.5" style="stroke:#181818;stroke-width:0.5;" width="99" x="530" y="622.248"/><text fill="#000000" font-family="sans-serif" font-size="14" lengthAdjust="spacing" textLength="85" x="537" y="644.3555">openai&#23458;&#25143;&#31471;</text><polygon fill="#181818" points="137,112.9121,147,116.9121,137,120.9121,141,116.9121" style="stroke:#181818;stroke-width:1.0;"/><line style="stroke:#181818;stroke-width:1.0;" x1="47" x2="143" y1="116.9121" y2="116.9121"/><text fill="#000000" font-family="sans-serif" font-size="13" lengthAdjust="spacing" textLength="52" x="54" y="111.6494">&#36755;&#20837;&#32593;&#22336;</text><polygon fill="#181818" points="291,144.2031,301,148.2031,291,152.2031,295,148.2031" style="stroke:#181818;stroke-width:1.0;"/><line style="stroke:#181818;stroke-width:1.0;" x1="149" x2="297" y1="148.2031" y2="148.2031"/><text fill="#000000" font-family="sans-serif" font-size="13" lengthAdjust="spacing" textLength="130" x="156" y="142.9404">&#26816;&#27979;&#26159;&#21542;&#23384;&#22312;&#35775;&#38382;&#20196;&#29260;</text><path d="M10,163.2031 L71,163.2031 L71,172.4941 L61,182.4941 L10,182.4941 L10,163.2031 " fill="#EEEEEE" style="stroke:#000000;stroke-width:1.5;"/><rect fill="none" height="443.0449" style="stroke:#000000;stroke-width:1.5;" width="639" x="10" y="163.2031"/><text fill="#000000" font-family="sans-serif" font-size="13" font-weight="bold" lengthAdjust="spacing" textLength="16" x="25" y="178.2314">alt</text><text fill="#000000" font-family="sans-serif" font-size="11" font-weight="bold" lengthAdjust="spacing" textLength="74" x="86" y="177.0732">[&#23384;&#22312;&#35775;&#38382;&#20196;&#29260;]</text><polygon fill="#181818" points="160,201.7852,150,205.7852,160,209.7852,156,205.7852" style="stroke:#181818;stroke-width:1.0;"/><line style="stroke:#181818;stroke-width:1.0;" x1="154" x2="302" y1="205.7852" y2="205.7852"/><text fill="#000000" font-family="sans-serif" font-size="13" lengthAdjust="spacing" textLength="72" x="166" y="200.5225">&#36339;&#36716;&#21040; /chat</text><polygon fill="#181818" points="137,233.0762,147,237.0762,137,241.0762,141,237.0762" style="stroke:#181818;stroke-width:1.0;"/><line style="stroke:#181818;stroke-width:1.0;" x1="47" x2="143" y1="237.0762" y2="237.0762"/><text fill="#000000" font-family="sans-serif" font-size="13" lengthAdjust="spacing" textLength="78" x="54" y="231.8135">&#21457;&#36215;&#32842;&#22825;&#35831;&#27714;</text><polygon fill="#181818" points="488,264.3672,498,268.3672,488,272.3672,492,268.3672" style="stroke:#181818;stroke-width:1.0;"/><line style="stroke:#181818;stroke-width:1.0;" x1="303" x2="494" y1="268.3672" y2="268.3672"/><text fill="#000000" font-family="sans-serif" font-size="13" lengthAdjust="spacing" textLength="173" x="310" y="263.1045">&#33719;&#21462;api&#23494;&#38053;&#12289;&#29992;&#25143;&#26435;&#38480;&#31561;&#20196;&#29260;</text><polygon fill="#181818" points="314,295.6582,304,299.6582,314,303.6582,310,299.6582" style="stroke:#181818;stroke-width:1.0;"/><line style="stroke:#181818;stroke-width:1.0;stroke-dasharray:2.0,2.0;" x1="308" x2="499" y1="299.6582" y2="299.6582"/><text fill="#000000" font-family="sans-serif" font-size="13" lengthAdjust="spacing" textLength="91" x="320" y="294.3955">&#36820;&#22238;&#23494;&#38053;&#21644;&#26435;&#38480;</text><path d="M20,314.6582 L81,314.6582 L81,323.9492 L71,333.9492 L20,333.9492 L20,314.6582 " fill="#EEEEEE" style="stroke:#000000;stroke-width:1.5;"/><rect fill="none" height="236.668" style="stroke:#000000;stroke-width:1.5;" width="619" x="20" y="314.6582"/><text fill="#000000" font-family="sans-serif" font-size="13" font-weight="bold" lengthAdjust="spacing" textLength="16" x="35" y="329.6865">alt</text><text fill="#000000" font-family="sans-serif" font-size="11" font-weight="bold" lengthAdjust="spacing" textLength="85" x="96" y="328.5283">[&#29992;&#25143;&#26377;&#32842;&#22825;&#26435;&#38480;]</text><polygon fill="#181818" points="567.5,353.2402,577.5,357.2402,567.5,361.2402,571.5,357.2402" style="stroke:#181818;stroke-width:1.0;"/><line style="stroke:#181818;stroke-width:1.0;" x1="303" x2="573.5" y1="357.2402" y2="357.2402"/><text fill="#000000" font-family="sans-serif" font-size="13" lengthAdjust="spacing" textLength="117" x="310" y="351.9775">&#20351;&#29992;&#23494;&#38053;&#21019;&#24314;&#23458;&#25143;&#31471;</text><polygon fill="#181818" points="58,384.5313,48,388.5313,58,392.5313,54,388.5313" style="stroke:#181818;stroke-width:1.0;"/><line style="stroke:#181818;stroke-width:1.0;stroke-dasharray:2.0,2.0;" x1="52" x2="578.5" y1="388.5313" y2="388.5313"/><text fill="#000000" font-family="sans-serif" font-size="13" lengthAdjust="spacing" textLength="52" x="64" y="383.2686">&#24320;&#21551;&#32842;&#22825;</text><polygon fill="#181818" points="291,415.8223,301,419.8223,291,423.8223,295,419.8223" style="stroke:#181818;stroke-width:1.0;"/><line style="stroke:#181818;stroke-width:1.0;" x1="47" x2="297" y1="419.8223" y2="419.8223"/><text fill="#000000" font-family="sans-serif" font-size="13" lengthAdjust="spacing" textLength="52" x="54" y="414.5596">&#32842;&#22825;&#32467;&#26463;</text><line style="stroke:#181818;stroke-width:1.0;" x1="303" x2="345" y1="451.1133" y2="451.1133"/><line style="stroke:#181818;stroke-width:1.0;" x1="345" x2="345" y1="451.1133" y2="464.1133"/><line style="stroke:#181818;stroke-width:1.0;" x1="304" x2="345" y1="464.1133" y2="464.1133"/><polygon fill="#181818" points="314,460.1133,304,464.1133,314,468.1133,310,464.1133" style="stroke:#181818;stroke-width:1.0;"/><text fill="#000000" font-family="sans-serif" font-size="13" lengthAdjust="spacing" textLength="52" x="310" y="445.8506">&#26356;&#26032;&#26435;&#38480;</text><polygon fill="#181818" points="488,491.4043,498,495.4043,488,499.4043,492,495.4043" style="stroke:#181818;stroke-width:1.0;"/><line style="stroke:#181818;stroke-width:1.0;stroke-dasharray:2.0,2.0;" x1="303" x2="494" y1="495.4043" y2="495.4043"/><text fill="#000000" font-family="sans-serif" font-size="13" lengthAdjust="spacing" textLength="52" x="310" y="490.1416">&#26435;&#38480;&#21516;&#27493;</text><line style="stroke:#000000;stroke-width:1.0;stroke-dasharray:2.0,2.0;" x1="20" x2="639" y1="504.4043" y2="504.4043"/><text fill="#000000" font-family="sans-serif" font-size="11" font-weight="bold" lengthAdjust="spacing" textLength="85" x="25" y="516.2744">[&#29992;&#25143;&#26080;&#32842;&#22825;&#26435;&#38480;]</text><polygon fill="#181818" points="58,539.3262,48,543.3262,58,547.3262,54,543.3262" style="stroke:#181818;stroke-width:1.0;"/><line style="stroke:#181818;stroke-width:1.0;" x1="52" x2="302" y1="543.3262" y2="543.3262"/><text fill="#000000" font-family="sans-serif" font-size="13" lengthAdjust="spacing" textLength="78" x="64" y="538.0635">&#24377;&#20986;&#35746;&#38405;&#31383;&#21475;</text><line style="stroke:#000000;stroke-width:1.0;stroke-dasharray:2.0,2.0;" x1="10" x2="649" y1="559.3262" y2="559.3262"/><text fill="#000000" font-family="sans-serif" font-size="11" font-weight="bold" lengthAdjust="spacing" textLength="85" x="15" y="571.1963">[&#19981;&#23384;&#22312;&#35775;&#38382;&#20196;&#29260;]</text><polygon fill="#181818" points="160,594.248,150,598.248,160,602.248,156,598.248" style="stroke:#181818;stroke-width:1.0;"/><line style="stroke:#181818;stroke-width:1.0;" x1="154" x2="302" y1="598.248" y2="598.248"/><text fill="#000000" font-family="sans-serif" font-size="13" lengthAdjust="spacing" textLength="74" x="166" y="592.9854">&#36339;&#36716;&#21040; /login</text><!--SRC=[dLBBJi905DttAoRiYNiM9iQLBlGR9jXe3Ia46kCID6XHb6Tu1503elYWnIYfWiZ7o9rE_yAsKqkhn8LTJUwvvpLJ79QYSQINUqJMk1YEIq9OY65HGcIOexSor7k-QK3azwK0mWcqOHxyq2xUmpQqRXxyK3J6YrW0fMsww0-glRLfpbRMLYC2BqeSnnAWuFBSE8JeHmdINNrIW5QIS-VMakKUGgIJ9CDJKbCXVmFz6ZHxL9aQLMKsljOpMGv79BHWZCpFulyqqvxfv17a0LeAxs39NbkO2d85EjHewWIkxwYgaQS3dwJLtbGxro1NmJ41r2EZsFrCffWMQHqQzRpUptZ2M0mKT5lHQHaQ5um7nInZs8jM8KUccM41FAWtXFToGsWscPeqHr5km7ZaFeNBz3BiCCp8hFkUXBpAtDpj-SKucMrO7vT8w_9N6EUn6Y-aCbYOrxqrXa8-I_fTUuUF9FZlojMhFolFyxx1yOWgRQEMrk-haEim9N6BizLchsV_-YaYqMr1v2oPBm00]--></g></svg>