<?xml version="1.0" encoding="us-ascii" standalone="no"?><svg xmlns="http://www.w3.org/2000/svg" xmlns:xlink="http://www.w3.org/1999/xlink" contentStyleType="text/css" height="477px" preserveAspectRatio="none" style="width:167px;height:477px;background:#FFFFFF;" version="1.1" viewBox="0 0 167 477" width="167px" zoomAndPan="magnify"><defs/><g><!--cluster Project A--><g id="cluster_Project A"><path d="M9.5,350.0137 L73.5,350.0137 A3.75,3.75 0 0 1 76,352.5137 L83,374.6348 L156.5,374.6348 A2.5,2.5 0 0 1 159,377.1348 L159,467.5137 A2.5,2.5 0 0 1 156.5,470.0137 L9.5,470.0137 A2.5,2.5 0 0 1 7,467.5137 L7,352.5137 A2.5,2.5 0 0 1 9.5,350.0137 " fill="#DDDDDD" style="stroke:#000000;stroke-width:1.5;"/><line style="stroke:#000000;stroke-width:1.5;" x1="7" x2="83" y1="374.6348" y2="374.6348"/><text fill="#000000" font-family="sans-serif" font-size="14" font-weight="bold" lengthAdjust="spacing" textLength="63" x="11" y="367.1211">Project A</text></g><!--cluster Project B--><g id="cluster_Project B"><path d="M8.5,178.0137 L73.5,178.0137 A3.75,3.75 0 0 1 76,180.5137 L83,202.6348 L157.5,202.6348 A2.5,2.5 0 0 1 160,205.1348 L160,296.5137 A2.5,2.5 0 0 1 157.5,299.0137 L8.5,299.0137 A2.5,2.5 0 0 1 6,296.5137 L6,180.5137 A2.5,2.5 0 0 1 8.5,178.0137 " fill="#FFCCCC" style="stroke:#000000;stroke-width:1.5;"/><line style="stroke:#000000;stroke-width:1.5;" x1="6" x2="83" y1="202.6348" y2="202.6348"/><text fill="#000000" font-family="sans-serif" font-size="14" font-weight="bold" lengthAdjust="spacing" textLength="64" x="10" y="195.1211">Project B</text></g><!--cluster Project C--><g id="cluster_Project C"><path d="M8.5,6.0137 L73.5,6.0137 A3.75,3.75 0 0 1 76,8.5137 L83,30.6348 L157.5,30.6348 A2.5,2.5 0 0 1 160,33.1348 L160,124.5137 A2.5,2.5 0 0 1 157.5,127.0137 L8.5,127.0137 A2.5,2.5 0 0 1 6,124.5137 L6,8.5137 A2.5,2.5 0 0 1 8.5,6.0137 " fill="#CCCCFF" style="stroke:#000000;stroke-width:1.5;"/><line style="stroke:#000000;stroke-width:1.5;" x1="6" x2="83" y1="30.6348" y2="30.6348"/><text fill="#000000" font-family="sans-serif" font-size="14" font-weight="bold" lengthAdjust="spacing" textLength="64" x="10" y="23.1211">Project C</text></g><!--class StrUtil--><g id="elem_StrUtil"><rect codeLine="3" fill="#F1F1F1" height="66.6211" id="StrUtil" rx="2.5" ry="2.5" style="stroke:#181818;stroke-width:0.5;" width="120" x="23" y="387.0137"/><ellipse cx="60.95" cy="403.0137" fill="#ADD1B2" rx="11" ry="11" style="stroke:#181818;stroke-width:1.0;"/><path d="M60.2938,408.873 Q58.3094,408.873 57.1375,407.4043 Q55.9813,405.9199 55.9813,402.8418 Q55.9813,400.2324 57.2,398.4824 Q58.4344,396.7324 60.5594,396.7324 Q61.0594,396.7324 61.5906,396.873 Q62.0281,397.0605 62.2938,397.0605 Q62.5125,397.0605 62.6063,397.0137 Q62.7156,396.9668 63.1688,396.373 L63.9344,400.1074 L63.0438,400.373 Q62.5906,398.9199 61.9813,398.3262 Q61.3875,397.7168 60.4344,397.7168 Q59.2156,397.7168 58.4969,399.1543 Q57.7781,400.5762 57.7781,402.7637 Q57.7781,405.1699 58.3875,406.4668 Q59.0125,407.748 60.3719,407.748 Q61.325,407.748 62.0125,407.0605 Q62.7,406.3574 63.0281,404.8574 L63.9344,405.2637 Q63.5281,406.9668 62.5594,407.9199 Q61.6063,408.873 60.2938,408.873 Z " fill="#000000"/><text fill="#000000" font-family="sans-serif" font-size="14" lengthAdjust="spacing" textLength="37" x="80.05" y="408.8105">StrUtil</text><line style="stroke:#181818;stroke-width:0.5;" x1="24" x2="142" y1="419.0137" y2="419.0137"/><ellipse cx="34" cy="433.8242" fill="none" rx="3" ry="3" style="stroke:#038048;stroke-width:1.0;"/><text fill="#000000" font-family="sans-serif" font-size="14" lengthAdjust="spacing" textLength="94" x="43" y="438.1211">String property</text><line style="stroke:#181818;stroke-width:0.5;" x1="24" x2="142" y1="445.6348" y2="445.6348"/></g><!--class B--><g id="elem_B"><rect codeLine="9" fill="#F1F1F1" height="67.9316" id="B" rx="2.5" ry="2.5" style="stroke:#181818;stroke-width:0.5;" width="122" x="22" y="215.0137"/><ellipse cx="74.25" cy="231.0137" fill="#ADD1B2" rx="11" ry="11" style="stroke:#181818;stroke-width:1.0;"/><path d="M73.5938,236.873 Q71.6094,236.873 70.4375,235.4043 Q69.2813,233.9199 69.2813,230.8418 Q69.2813,228.2324 70.5,226.4824 Q71.7344,224.7324 73.8594,224.7324 Q74.3594,224.7324 74.8906,224.873 Q75.3281,225.0605 75.5938,225.0605 Q75.8125,225.0605 75.9063,225.0137 Q76.0156,224.9668 76.4688,224.373 L77.2344,228.1074 L76.3438,228.373 Q75.8906,226.9199 75.2813,226.3262 Q74.6875,225.7168 73.7344,225.7168 Q72.5156,225.7168 71.7969,227.1543 Q71.0781,228.5762 71.0781,230.7637 Q71.0781,233.1699 71.6875,234.4668 Q72.3125,235.748 73.6719,235.748 Q74.625,235.748 75.3125,235.0605 Q76,234.3574 76.3281,232.8574 L77.2344,233.2637 Q76.8281,234.9668 75.8594,235.9199 Q74.9063,236.873 73.5938,236.873 Z " fill="#000000"/><text fill="#000000" font-family="sans-serif" font-size="14" lengthAdjust="spacing" textLength="9" x="94.75" y="236.8105">B</text><line style="stroke:#181818;stroke-width:0.5;" x1="23" x2="143" y1="247.0137" y2="247.0137"/><line style="stroke:#181818;stroke-width:1.0;stroke-dasharray:1.0,2.0;" x1="23" x2="26" y1="264.3242" y2="264.3242"/><text fill="#000000" font-family="sans-serif" font-size="14" lengthAdjust="spacing" textLength="114" x="26" y="269.6211">implementation(A)</text><line style="stroke:#181818;stroke-width:1.0;stroke-dasharray:1.0,2.0;" x1="140" x2="143" y1="264.3242" y2="264.3242"/></g><!--class C--><g id="elem_C"><rect codeLine="16" fill="#F1F1F1" height="67.9316" id="C" rx="2.5" ry="2.5" style="stroke:#181818;stroke-width:0.5;" width="122" x="22" y="43.0137"/><ellipse cx="73.75" cy="59.0137" fill="#ADD1B2" rx="11" ry="11" style="stroke:#181818;stroke-width:1.0;"/><path d="M73.0938,64.873 Q71.1094,64.873 69.9375,63.4043 Q68.7813,61.9199 68.7813,58.8418 Q68.7813,56.2324 70,54.4824 Q71.2344,52.7324 73.3594,52.7324 Q73.8594,52.7324 74.3906,52.873 Q74.8281,53.0605 75.0938,53.0605 Q75.3125,53.0605 75.4063,53.0137 Q75.5156,52.9668 75.9688,52.373 L76.7344,56.1074 L75.8438,56.373 Q75.3906,54.9199 74.7813,54.3262 Q74.1875,53.7168 73.2344,53.7168 Q72.0156,53.7168 71.2969,55.1543 Q70.5781,56.5762 70.5781,58.7637 Q70.5781,61.1699 71.1875,62.4668 Q71.8125,63.748 73.1719,63.748 Q74.125,63.748 74.8125,63.0605 Q75.5,62.3574 75.8281,60.8574 L76.7344,61.2637 Q76.3281,62.9668 75.3594,63.9199 Q74.4063,64.873 73.0938,64.873 Z " fill="#000000"/><text fill="#000000" font-family="sans-serif" font-size="14" lengthAdjust="spacing" textLength="10" x="94.25" y="64.8105">C</text><line style="stroke:#181818;stroke-width:0.5;" x1="23" x2="143" y1="75.0137" y2="75.0137"/><line style="stroke:#181818;stroke-width:1.0;stroke-dasharray:1.0,2.0;" x1="23" x2="26" y1="92.3242" y2="92.3242"/><text fill="#000000" font-family="sans-serif" font-size="14" lengthAdjust="spacing" textLength="114" x="26" y="97.6211">implementation(B)</text><line style="stroke:#181818;stroke-width:1.0;stroke-dasharray:1.0,2.0;" x1="140" x2="143" y1="92.3242" y2="92.3242"/></g><!--link B to StrUtil--><g id="link_B_StrUtil"><path codeLine="12" d="M83,283.0937 C83,313.0637 83,350.9537 83,380.8037 " fill="none" id="B-to-StrUtil" style="stroke:#181818;stroke-width:1.0;stroke-dasharray:7.0,7.0;"/><polygon fill="#181818" points="83,386.8037,87,377.8037,83,381.8037,79,377.8037,83,386.8037" style="stroke:#181818;stroke-width:1.0;"/><text fill="#000000" font-family="sans-serif" font-size="13" lengthAdjust="spacing" textLength="28" x="84" y="330.042">uses</text></g><!--link C to B--><g id="link_C_B"><path codeLine="19" d="M83,111.1937 C83,141.1537 83,178.9837 83,208.9137 " fill="none" id="C-to-B" style="stroke:#181818;stroke-width:1.0;stroke-dasharray:7.0,7.0;"/><polygon fill="#181818" points="83,214.9137,87,205.9137,83,209.9137,79,205.9137,83,214.9137" style="stroke:#181818;stroke-width:1.0;"/><text fill="#000000" font-family="sans-serif" font-size="13" lengthAdjust="spacing" textLength="28" x="84" y="158.042">uses</text></g><!--SRC=[AqXCpavCJrLG2YZApqfDBb5mL59GTW43XMek1I18paaiBbO8BYaABSdCWOg1W3PGA3ClNQ6WAByWjQYa4YnHorNBnLM0RgOJq4mtDsSWG37J2SaqFRtCt8ASrDpKl9B4aipyF0r7JJqzg94WqWcemWxk2Yk5qkBKOgnsEGFj0jdavePYbpC-kvnGxN86s-M4i0K0]--></g></svg>