<?xml version="1.0" encoding="us-ascii" standalone="no"?><svg xmlns="http://www.w3.org/2000/svg" xmlns:xlink="http://www.w3.org/1999/xlink" contentStyleType="text/css" height="652px" preserveAspectRatio="none" style="width:737px;height:652px;background:#FFFFFF;" version="1.1" viewBox="0 0 737 652" width="737px" zoomAndPan="magnify"><defs/><g><rect fill="#ADD8E6" height="199.5332" style="stroke:#000000;stroke-width:1.0;" width="715" x="15" y="354.2085"/><rect fill="#90EE90" height="62.9673" style="stroke:#000000;stroke-width:1.0;" width="402" x="318" y="408.8071"/><rect fill="#90EE90" height="15.3687" style="stroke:none;stroke-width:1.0;" width="402" x="318" y="456.4058"/><rect fill="#ADD8E6" height="45.168" style="stroke:none;stroke-width:1.0;" width="715" x="15" y="508.5737"/><line style="stroke:#000000;stroke-width:1.0;" x1="42" x2="42" y1="83.0146" y2="570.7417"/><line style="stroke:#000000;stroke-width:1.0;" x1="219" x2="219" y1="83.0146" y2="570.7417"/><line style="stroke:#000000;stroke-width:1.0;" x1="373" x2="373" y1="83.0146" y2="570.7417"/><line style="stroke:#000000;stroke-width:1.0;" x1="553" x2="553" y1="83.0146" y2="570.7417"/><line style="stroke:#000000;stroke-width:1.0;" x1="630" x2="630" y1="83.0146" y2="570.7417"/><line style="stroke:#000000;stroke-width:1.0;" x1="686" x2="686" y1="83.0146" y2="570.7417"/><text fill="#000000" font-family="Verdana" font-size="14" lengthAdjust="spacing" textLength="28" x="25" y="80.0752">&#29992;&#25143;</text><ellipse cx="42" cy="14" fill="#FFFFFF" rx="8" ry="8" style="stroke:#000000;stroke-width:1.0;"/><path d="M42,22 L42,49 M29,30 L55,30 M42,49 L29,64 M42,49 L55,64 " fill="none" style="stroke:#000000;stroke-width:1.0;"/><text fill="#000000" font-family="Verdana" font-size="14" lengthAdjust="spacing" textLength="28" x="25" y="583.8169">&#29992;&#25143;</text><ellipse cx="42" cy="595.7563" fill="#FFFFFF" rx="8" ry="8" style="stroke:#000000;stroke-width:1.0;"/><path d="M42,603.7563 L42,630.7563 M29,611.7563 L55,611.7563 M42,630.7563 L29,645.7563 M42,630.7563 L55,645.7563 " fill="none" style="stroke:#000000;stroke-width:1.0;"/><rect fill="#FFFFFF" height="31.0146" rx="2.5" ry="2.5" style="stroke:#000000;stroke-width:1.0;" width="70" x="184" y="51"/><text fill="#000000" font-family="Verdana" font-size="14" lengthAdjust="spacing" textLength="56" x="191" y="72.0752">&#21069;&#31471;&#30028;&#38754;</text><rect fill="#FFFFFF" height="31.0146" rx="2.5" ry="2.5" style="stroke:#000000;stroke-width:1.0;" width="70" x="184" y="569.7417"/><text fill="#000000" font-family="Verdana" font-size="14" lengthAdjust="spacing" textLength="56" x="191" y="590.8169">&#21069;&#31471;&#30028;&#38754;</text><rect fill="#FFFFFF" height="31.0146" rx="2.5" ry="2.5" style="stroke:#000000;stroke-width:1.0;" width="70" x="338" y="51"/><text fill="#000000" font-family="Verdana" font-size="14" lengthAdjust="spacing" textLength="56" x="345" y="72.0752">&#21518;&#21488;&#26381;&#21153;</text><rect fill="#FFFFFF" height="31.0146" rx="2.5" ry="2.5" style="stroke:#000000;stroke-width:1.0;" width="70" x="338" y="569.7417"/><text fill="#000000" font-family="Verdana" font-size="14" lengthAdjust="spacing" textLength="56" x="345" y="590.8169">&#21518;&#21488;&#26381;&#21153;</text><rect fill="#FFFFFF" height="31.0146" rx="2.5" ry="2.5" style="stroke:#000000;stroke-width:1.0;" width="70" x="518" y="51"/><text fill="#000000" font-family="Verdana" font-size="14" lengthAdjust="spacing" textLength="56" x="525" y="72.0752">&#30701;&#20449;&#26381;&#21153;</text><rect fill="#FFFFFF" height="31.0146" rx="2.5" ry="2.5" style="stroke:#000000;stroke-width:1.0;" width="70" x="518" y="569.7417"/><text fill="#000000" font-family="Verdana" font-size="14" lengthAdjust="spacing" textLength="56" x="525" y="590.8169">&#30701;&#20449;&#26381;&#21153;</text><text fill="#000000" font-family="Verdana" font-size="14" lengthAdjust="spacing" textLength="38" x="608" y="80.0752">Redis</text><path d="M612,30 C612,20 630,20 630,20 C630,20 648,20 648,30 L648,56 C648,66 630,66 630,66 C630,66 612,66 612,56 L612,30 " fill="#FFFFFF" style="stroke:#000000;stroke-width:1.5;"/><path d="M612,30 C612,40 630,40 630,40 C630,40 648,40 648,30 " fill="none" style="stroke:#000000;stroke-width:1.5;"/><text fill="#000000" font-family="Verdana" font-size="14" lengthAdjust="spacing" textLength="38" x="608" y="583.8169">Redis</text><path d="M612,596.7563 C612,586.7563 630,586.7563 630,586.7563 C630,586.7563 648,586.7563 648,596.7563 L648,622.7563 C648,632.7563 630,632.7563 630,632.7563 C630,632.7563 612,632.7563 612,622.7563 L612,596.7563 " fill="#FFFFFF" style="stroke:#000000;stroke-width:1.5;"/><path d="M612,596.7563 C612,606.7563 630,606.7563 630,606.7563 C630,606.7563 648,606.7563 648,596.7563 " fill="none" style="stroke:#000000;stroke-width:1.5;"/><text fill="#000000" font-family="Verdana" font-size="14" lengthAdjust="spacing" textLength="42" x="662" y="80.0752">&#25968;&#25454;&#24211;</text><path d="M668,30 C668,20 686,20 686,20 C686,20 704,20 704,30 L704,56 C704,66 686,66 686,66 C686,66 668,66 668,56 L668,30 " fill="#FFFFFF" style="stroke:#000000;stroke-width:1.5;"/><path d="M668,30 C668,40 686,40 686,40 C686,40 704,40 704,30 " fill="none" style="stroke:#000000;stroke-width:1.5;"/><text fill="#000000" font-family="Verdana" font-size="14" lengthAdjust="spacing" textLength="42" x="662" y="583.8169">&#25968;&#25454;&#24211;</text><path d="M668,596.7563 C668,586.7563 686,586.7563 686,586.7563 C686,586.7563 704,586.7563 704,596.7563 L704,622.7563 C704,632.7563 686,632.7563 686,632.7563 C686,632.7563 668,632.7563 668,622.7563 L668,596.7563 " fill="#FFFFFF" style="stroke:#000000;stroke-width:1.5;"/><path d="M668,596.7563 C668,606.7563 686,606.7563 686,606.7563 C686,606.7563 704,606.7563 704,596.7563 " fill="none" style="stroke:#000000;stroke-width:1.5;"/><polygon fill="#000000" points="207,110.814,217,114.814,207,118.814,211,114.814" style="stroke:#000000;stroke-width:1.0;"/><line style="stroke:#000000;stroke-width:1.0;" x1="42" x2="213" y1="114.814" y2="114.814"/><text fill="#000000" font-family="Verdana" font-size="13" font-weight="bold" lengthAdjust="spacing" textLength="9" x="49" y="110.0845">1</text><text fill="#000000" font-family="Verdana" font-size="13" lengthAdjust="spacing" textLength="65" x="62" y="110.0845">&#36755;&#20837;&#25163;&#26426;&#21495;</text><polygon fill="#000000" points="361,140.6133,371,144.6133,361,148.6133,365,144.6133" style="stroke:#000000;stroke-width:1.0;"/><line style="stroke:#000000;stroke-width:1.0;" x1="219" x2="367" y1="144.6133" y2="144.6133"/><text fill="#000000" font-family="Verdana" font-size="13" font-weight="bold" lengthAdjust="spacing" textLength="9" x="226" y="139.8838">2</text><text fill="#000000" font-family="Verdana" font-size="13" lengthAdjust="spacing" textLength="101" x="239" y="139.8838">&#28857;&#20987;"&#21457;&#36865;&#39564;&#35777;&#30721;"</text><polygon fill="#000000" points="541,170.4126,551,174.4126,541,178.4126,545,174.4126" style="stroke:#000000;stroke-width:1.0;"/><line style="stroke:#000000;stroke-width:1.0;" x1="373" x2="547" y1="174.4126" y2="174.4126"/><text fill="#000000" font-family="Verdana" font-size="13" font-weight="bold" lengthAdjust="spacing" textLength="9" x="380" y="169.6831">3</text><text fill="#000000" font-family="Verdana" font-size="13" lengthAdjust="spacing" textLength="143" x="393" y="169.6831">&#35843;&#29992;&#30701;&#20449;&#25509;&#21475;&#21457;&#36865;&#39564;&#35777;&#30721;</text><polygon fill="#000000" points="53,200.2119,43,204.2119,53,208.2119,49,204.2119" style="stroke:#000000;stroke-width:1.0;"/><line style="stroke:#000000;stroke-width:1.0;" x1="47" x2="552" y1="204.2119" y2="204.2119"/><text fill="#000000" font-family="Verdana" font-size="13" font-weight="bold" lengthAdjust="spacing" textLength="9" x="59" y="199.4824">4</text><text fill="#000000" font-family="Verdana" font-size="13" lengthAdjust="spacing" textLength="91" x="72" y="199.4824">&#21457;&#36865;&#39564;&#35777;&#30721;&#30701;&#20449;</text><polygon fill="#000000" points="618,245.8105,628,249.8105,618,253.8105,622,249.8105" style="stroke:#000000;stroke-width:1.0;"/><line style="stroke:#000000;stroke-width:1.0;" x1="373" x2="624" y1="249.8105" y2="249.8105"/><text fill="#000000" font-family="Verdana" font-size="13" font-weight="bold" lengthAdjust="spacing" textLength="9" x="380" y="237.1814">5</text><text fill="#000000" font-family="Verdana" font-size="13" lengthAdjust="spacing" textLength="65" x="393" y="229.2817">&#32531;&#23384;&#39564;&#35777;&#30721;</text><text fill="#000000" font-family="Verdana" font-size="13" lengthAdjust="spacing" textLength="70" x="393" y="245.0811">(&#38190;:&#25163;&#26426;&#21495;)</text><polygon fill="#000000" points="207,275.6099,217,279.6099,207,283.6099,211,279.6099" style="stroke:#000000;stroke-width:1.0;"/><line style="stroke:#000000;stroke-width:1.0;" x1="42" x2="213" y1="279.6099" y2="279.6099"/><text fill="#000000" font-family="Verdana" font-size="13" font-weight="bold" lengthAdjust="spacing" textLength="9" x="49" y="274.8804">6</text><text fill="#000000" font-family="Verdana" font-size="13" lengthAdjust="spacing" textLength="140" x="62" y="274.8804">&#36755;&#20837;&#39564;&#35777;&#30721;&#24182;&#28857;&#20987;"&#30331;&#24405;"</text><polygon fill="#000000" points="361,305.4092,371,309.4092,361,313.4092,365,309.4092" style="stroke:#000000;stroke-width:1.0;"/><line style="stroke:#000000;stroke-width:1.0;" x1="219" x2="367" y1="309.4092" y2="309.4092"/><text fill="#000000" font-family="Verdana" font-size="13" font-weight="bold" lengthAdjust="spacing" textLength="9" x="226" y="304.6797">7</text><text fill="#000000" font-family="Verdana" font-size="13" lengthAdjust="spacing" textLength="117" x="239" y="304.6797">&#25552;&#20132;&#39564;&#35777;&#30721;&#36827;&#34892;&#30331;&#24405;</text><polygon fill="#000000" points="618,335.2085,628,339.2085,618,343.2085,622,339.2085" style="stroke:#000000;stroke-width:1.0;"/><line style="stroke:#000000;stroke-width:1.0;" x1="373" x2="624" y1="339.2085" y2="339.2085"/><text fill="#000000" font-family="Verdana" font-size="13" font-weight="bold" lengthAdjust="spacing" textLength="9" x="380" y="334.479">8</text><text fill="#000000" font-family="Verdana" font-size="13" lengthAdjust="spacing" textLength="104" x="393" y="334.479">&#33719;&#21462;&#32531;&#23384;&#30340;&#39564;&#35777;&#30721;</text><path d="M15,354.2085 L79,354.2085 L79,362.0078 L69,372.0078 L15,372.0078 L15,354.2085 " fill="#FFD700" style="stroke:#000000;stroke-width:1.0;"/><rect fill="none" height="199.5332" style="stroke:#000000;stroke-width:1.0;" width="715" x="15" y="354.2085"/><text fill="#000000" font-family="Verdana" font-size="13" font-weight="bold" lengthAdjust="spacing" textLength="19" x="30" y="368.2783">alt</text><text fill="#000000" font-family="Verdana" font-size="11" font-weight="bold" lengthAdjust="spacing" textLength="67" x="94" y="367.2676">[&#39564;&#35777;&#30721;&#27491;&#30830;]</text><polygon fill="#000000" points="674,389.8071,684,393.8071,674,397.8071,678,393.8071" style="stroke:#000000;stroke-width:1.0;"/><line style="stroke:#000000;stroke-width:1.0;" x1="373" x2="680" y1="393.8071" y2="393.8071"/><text fill="#000000" font-family="Verdana" font-size="13" font-weight="bold" lengthAdjust="spacing" textLength="9" x="380" y="389.0776">9</text><text fill="#000000" font-family="Verdana" font-size="13" lengthAdjust="spacing" textLength="156" x="393" y="389.0776">&#26597;&#35810;&#25163;&#26426;&#21495;&#23545;&#24212;&#30340;&#29992;&#25143;&#20449;&#24687;</text><path d="M318,408.8071 L382,408.8071 L382,416.6064 L372,426.6064 L318,426.6064 L318,408.8071 " fill="#FFD700" style="stroke:#000000;stroke-width:1.0;"/><rect fill="none" height="62.9673" style="stroke:#000000;stroke-width:1.0;" width="402" x="318" y="408.8071"/><text fill="#000000" font-family="Verdana" font-size="13" font-weight="bold" lengthAdjust="spacing" textLength="19" x="333" y="422.877">alt</text><text fill="#000000" font-family="Verdana" font-size="11" font-weight="bold" lengthAdjust="spacing" textLength="67" x="397" y="421.8662">[&#29992;&#25143;&#19981;&#23384;&#22312;]</text><polygon fill="#000000" points="674,444.4058,684,448.4058,674,452.4058,678,448.4058" style="stroke:#000000;stroke-width:1.0;"/><line style="stroke:#000000;stroke-width:1.0;" x1="373" x2="680" y1="448.4058" y2="448.4058"/><text fill="#000000" font-family="Verdana" font-size="13" font-weight="bold" lengthAdjust="spacing" textLength="18" x="380" y="443.6763">10</text><text fill="#000000" font-family="Verdana" font-size="13" lengthAdjust="spacing" textLength="78" x="402" y="443.6763">&#26032;&#24314;&#29992;&#25143;&#20449;&#24687;</text><line style="stroke:#000000;stroke-width:1.0;stroke-dasharray:2.0,2.0;" x1="318" x2="720" y1="457.4058" y2="457.4058"/><text fill="#000000" font-family="Verdana" font-size="11" font-weight="bold" lengthAdjust="spacing" textLength="67" x="323" y="468.4648">[&#29992;&#25143;&#24050;&#23384;&#22312;]</text><polygon fill="#000000" points="53,496.5737,43,500.5737,53,504.5737,49,500.5737" style="stroke:#000000;stroke-width:1.0;"/><line style="stroke:#000000;stroke-width:1.0;" x1="47" x2="372" y1="500.5737" y2="500.5737"/><text fill="#000000" font-family="Verdana" font-size="13" font-weight="bold" lengthAdjust="spacing" textLength="18" x="59" y="495.8442">11</text><text fill="#000000" font-family="Verdana" font-size="13" lengthAdjust="spacing" textLength="128" x="81" y="495.8442">&#29983;&#25104;&#24182;&#36820;&#22238;jwt token</text><line style="stroke:#000000;stroke-width:1.0;stroke-dasharray:2.0,2.0;" x1="15" x2="730" y1="509.5737" y2="509.5737"/><text fill="#000000" font-family="Verdana" font-size="11" font-weight="bold" lengthAdjust="spacing" textLength="67" x="20" y="520.6328">[&#39564;&#35777;&#30721;&#38169;&#35823;]</text><polygon fill="#000000" points="53,541.7417,43,545.7417,53,549.7417,49,545.7417" style="stroke:#000000;stroke-width:1.0;"/><line style="stroke:#000000;stroke-width:1.0;" x1="47" x2="372" y1="545.7417" y2="545.7417"/><text fill="#000000" font-family="Verdana" font-size="13" font-weight="bold" lengthAdjust="spacing" textLength="18" x="59" y="541.0122">12</text><text fill="#000000" font-family="Verdana" font-size="13" lengthAdjust="spacing" textLength="78" x="81" y="541.0122">&#36820;&#22238;&#38169;&#35823;&#20449;&#24687;</text><!--SRC=[VP9FSz906CRl-odMz58FVW4E7h1ZBtgnrrwsi2FHD672Cbv5wzWg41n2nreKQMMcemDXF1G9RVaolBl9jt3pnsqcRSrntz_plC-psNkiGdSfhXf4Dn4Y9MRPMBXdV7-6giHcUacl4fDX3GvQufSdUitmwuc6IGq_jYsJKRESmpfjSAQytu8FmnWhajBB6vGOZ5VBOORQUhg5oeIH7LAZM7j6otejFdz4IXMQcV3UbBScu7VZwKOHaJgppFhk3hLHaXe_UAYYuG8EhhhmRiGFFlA-3yuCgP74qcYI4c_cy7wXWVCfVDq8VpO3ho6-DpJqZv2mJ1ZPJT_ADMdyzWYSqvm6HPp4qp05d9idqgnnN37ASD65yMS5RflheJifgEJt_zTFgM1-ddOHHmkux6bt5EPEP-N_KB9WUHmCcudajcn1UmREOP9GVDcxRaiCjhPf6MMyzaH_Nc55eqwnclBngHXE49PVndEZ6EqVZ0BlH9K3Rmw-AvsJZj7bDhnOc5kmQLDgffUx-jEISQ1_5eEtRZcSmiA_uKaD-PIIKvZzpdX4xpJde_wZS0TyloFlDrYwSFpjnIk6cIKf5Bkfpg5x57ZUdIw9E87IHD7Ilm00]--></g></svg>