<svg width="390.8" height="84.301" viewBox="0 0 390.8 84.301" xmlns="http://www.w3.org/2000/svg"><g id="svgGroup" stroke-linecap="round" fill-rule="evenodd" font-size="9pt" stroke="#000" stroke-width="0.25mm" fill="#000" style="stroke:#000;stroke-width:0.25mm;fill:#000"><path d="M 160.5 16.7 L 157.7 19.2 A 54.374 54.374 0 0 0 156.454 20.308 Q 154.217 22.367 154.019 23.158 A 0.587 0.587 0 0 0 154 23.3 A 0.996 0.996 0 0 0 154.049 23.626 Q 154.237 24.169 155.15 24.05 A 19.792 19.792 0 0 1 156.108 23.947 Q 156.694 23.9 157.2 23.9 Q 159.4 23.9 162.331 24.605 A 42.013 42.013 0 0 1 164.85 25.3 Q 169.4 26.7 174.25 33.2 A 101.263 101.263 0 0 1 175.898 35.469 Q 179.015 39.899 179.098 41.325 A 1.305 1.305 0 0 1 179.1 41.4 Q 179.1 43.1 175.7 43.1 A 29.313 29.313 0 0 0 174.213 43.135 Q 173.487 43.172 172.863 43.248 A 12.751 12.751 0 0 0 171.9 43.4 A 14.989 14.989 0 0 1 170.207 43.634 A 19.96 19.96 0 0 1 168.55 43.7 Q 167.307 43.7 165.59 43.429 A 38.401 38.401 0 0 1 163.8 43.1 Q 160.982 42.517 160.336 42.5 A 1.404 1.404 0 0 0 160.3 42.5 Q 159.7 42.5 159.2 42.8 A 1.682 1.682 0 0 1 158.9 42.935 Q 158.302 43.147 157 43.3 A 53.298 53.298 0 0 0 150.553 44.184 A 41.51 41.51 0 0 0 145.45 45.55 A 34.158 34.158 0 0 0 143.245 46.379 Q 139.986 47.744 138.951 49.198 A 3.316 3.316 0 0 0 138.95 49.2 Q 137.688 50.977 137.606 52.316 A 3.011 3.011 0 0 0 137.6 52.5 A 3.243 3.243 0 0 0 138.59 54.826 Q 139.03 55.278 139.665 55.672 A 8.125 8.125 0 0 0 140.15 55.95 Q 142.252 57.063 143.504 57.802 A 31.222 31.222 0 0 1 144 58.1 A 8.85 8.85 0 0 0 144.655 58.469 Q 145.513 58.9 146.1 58.9 A 0.832 0.832 0 0 0 146.665 58.661 Q 147.106 58.263 147.45 57.2 A 12.537 12.537 0 0 0 147.826 55.77 Q 148 54.888 148 54.1 A 2.614 2.614 0 0 0 147.955 53.589 Q 147.794 52.787 147.065 52.709 A 1.541 1.541 0 0 0 146.9 52.7 A 0.569 0.569 0 0 0 146.787 52.714 Q 146.571 52.759 146.15 52.95 A 2.307 2.307 0 0 1 145.719 53.092 Q 145.286 53.193 144.684 53.2 A 7.775 7.775 0 0 1 144.6 53.2 A 3.316 3.316 0 0 1 143.303 52.927 A 4.499 4.499 0 0 1 142.6 52.55 Q 141.6 51.9 141.6 51.4 A 0.555 0.555 0 0 1 141.836 50.945 Q 142.031 50.794 142.389 50.703 A 2.771 2.771 0 0 1 142.4 50.7 Q 143.2 50.5 143.9 50.05 A 2.79 2.79 0 0 1 144.307 49.844 Q 145.213 49.458 147.4 48.95 Q 150.072 48.33 151.788 48.301 A 9.816 9.816 0 0 1 151.95 48.3 A 11.405 11.405 0 0 1 153.577 48.424 Q 154.399 48.543 155.308 48.775 A 21.235 21.235 0 0 1 155.95 48.95 A 8.728 8.728 0 0 1 156.743 49.217 Q 158.2 49.795 158.2 50.6 Q 158.2 51.6 157.1 53.05 Q 156 54.5 154.2 58 A 56.609 56.609 0 0 0 153.588 59.223 Q 152.711 61.035 152.481 61.93 A 2.185 2.185 0 0 0 152.4 62.45 A 2.053 2.053 0 0 0 152.858 63.737 A 3.044 3.044 0 0 0 153.25 64.15 Q 154.033 64.841 155.706 66.422 A 318.635 318.635 0 0 1 156 66.7 Q 157.9 68.5 160.45 69.85 A 23.255 23.255 0 0 0 162.502 70.801 Q 163.515 71.216 164.702 71.616 A 53.803 53.803 0 0 0 167.25 72.4 A 76.571 76.571 0 0 1 170.426 73.379 Q 173.7 74.459 177.9 76.1 A 218.233 218.233 0 0 1 180.131 76.985 Q 183.5 78.344 185.068 79.14 A 11.072 11.072 0 0 1 185.9 79.6 Q 187.219 80.425 187.451 80.977 A 0.577 0.577 0 0 1 187.5 81.2 Q 187.5 81.951 185.339 82.529 A 17.86 17.86 0 0 1 184.4 82.75 A 24.649 24.649 0 0 1 182.253 83.093 Q 179.832 83.38 176.525 83.399 A 82.451 82.451 0 0 1 176.05 83.4 Q 171.781 83.4 168.536 82.606 A 20.255 20.255 0 0 1 167.1 82.2 Q 165.302 81.601 164.502 81.5 A 5.41 5.41 0 0 0 164.5 81.5 A 8.152 8.152 0 0 0 164.045 81.459 Q 163.173 81.4 161.45 81.4 A 3.032 3.032 0 0 1 160.546 81.277 Q 159.2 80.856 159.2 79 Q 159.2 75.8 157.35 73.2 A 11.335 11.335 0 0 0 156.1 71.711 Q 155.357 70.975 154.564 70.526 A 5.488 5.488 0 0 0 153.3 70 A 27.77 27.77 0 0 1 152.153 69.663 Q 151.055 69.311 150.351 68.96 A 6.026 6.026 0 0 1 150.05 68.8 A 6.789 6.789 0 0 0 149.487 68.51 Q 148.89 68.239 148.43 68.205 A 1.751 1.751 0 0 0 148.3 68.2 A 1.864 1.864 0 0 0 147.403 68.437 A 2.672 2.672 0 0 0 146.95 68.75 Q 146.3 69.3 144.45 70.2 A 11.814 11.814 0 0 0 143.443 70.765 Q 141.569 71.92 138.2 74.6 Q 136 76.4 133.05 76.4 Q 130.1 76.4 127.25 75.4 A 18.574 18.574 0 0 1 126.3 75.04 Q 124.973 74.49 124.573 74.006 A 0.646 0.646 0 0 1 124.4 73.6 A 0.608 0.608 0 0 1 124.617 73.17 Q 125.054 72.744 126.373 72.348 A 17.69 17.69 0 0 1 127.3 72.1 Q 129.503 71.568 133.294 69.853 A 101 101 0 0 0 135.85 68.65 A 56.475 56.475 0 0 0 137.698 67.712 Q 141.183 65.853 141.474 64.871 A 0.604 0.604 0 0 0 141.5 64.7 A 1.285 1.285 0 0 0 141.238 63.971 Q 140.685 63.174 138.962 62.261 A 19.158 19.158 0 0 0 138.45 62 A 15.163 15.163 0 0 0 135.331 60.852 A 12.2 12.2 0 0 0 132.45 60.5 A 5.478 5.478 0 0 0 130.01 61.116 Q 128.315 61.954 126.53 63.934 A 21.233 21.233 0 0 0 126.25 64.25 A 49.401 49.401 0 0 0 124.808 65.987 Q 122.84 68.48 122.35 69.95 A 3.643 3.643 0 0 1 121.449 71.355 Q 120.542 72.272 118.854 73.018 A 15.69 15.69 0 0 1 118.3 73.25 A 20.308 20.308 0 0 1 115.088 74.241 A 15.356 15.356 0 0 1 111.85 74.6 Q 108.8 74.6 106.8 74.2 Q 104.99 73.838 104.818 73.476 A 0.176 0.176 0 0 1 104.8 73.4 A 0.672 0.672 0 0 1 105.067 72.982 Q 106.007 72.104 110.254 70.225 A 130.337 130.337 0 0 1 112.4 69.3 Q 117.44 67.187 122.579 62.232 A 56.906 56.906 0 0 0 124.95 59.8 A 167.852 167.852 0 0 0 126.438 58.163 Q 130.388 53.755 131.129 52.177 A 1.475 1.475 0 0 0 131.3 51.6 A 1.789 1.789 0 0 0 131.16 50.916 A 2.346 2.346 0 0 0 131 50.6 Q 130.7 50.1 129.8 50.1 Q 128.9 50.1 128.15 50.6 A 5.772 5.772 0 0 1 127.807 50.813 Q 127.473 51.004 127.226 51.068 A 0.906 0.906 0 0 1 127 51.1 A 1.021 1.021 0 0 1 126.433 50.895 Q 125.752 50.432 124.889 48.918 A 20.126 20.126 0 0 1 124.5 48.2 A 46.095 46.095 0 0 1 123.99 47.186 Q 123 45.15 123 44.5 A 3.96 3.96 0 0 1 123.009 44.225 Q 123.038 43.803 123.167 43.66 A 0.223 0.223 0 0 1 123.25 43.6 A 0.707 0.707 0 0 1 123.388 43.566 Q 123.711 43.512 124.589 43.502 A 37.252 37.252 0 0 1 125 43.5 A 6.978 6.978 0 0 0 127.176 43.14 A 8.652 8.652 0 0 0 128.05 42.8 A 16.831 16.831 0 0 1 129.052 42.39 Q 130.161 41.974 131.769 41.498 A 76.501 76.501 0 0 1 132.8 41.2 A 85.933 85.933 0 0 0 133.905 40.882 Q 135.972 40.27 136.449 39.983 A 0.887 0.887 0 0 0 136.5 39.95 Q 137 39.6 137.45 38.1 A 10.721 10.721 0 0 0 137.842 36.219 A 9.102 9.102 0 0 0 137.9 35.2 A 1.728 1.728 0 0 0 137.841 34.725 Q 137.688 34.193 137.144 34.051 A 1.768 1.768 0 0 0 136.7 34 A 12.944 12.944 0 0 0 134.748 34.161 Q 132.87 34.449 130.5 35.25 A 51.933 51.933 0 0 0 129.216 35.701 Q 126.659 36.641 126.05 37.25 A 2.51 2.51 0 0 1 124.679 37.947 A 3.58 3.58 0 0 1 124.05 38 Q 122.8 38 122.1 36.85 A 8.536 8.536 0 0 1 121.794 36.306 Q 121.513 35.758 121.433 35.353 A 1.56 1.56 0 0 1 121.4 35.05 A 1.342 1.342 0 0 1 121.844 34.043 A 1.886 1.886 0 0 1 121.95 33.95 A 2.968 2.968 0 0 1 122.275 33.727 Q 122.841 33.382 124.062 32.824 A 57.57 57.57 0 0 1 124.9 32.45 A 29.347 29.347 0 0 1 126.275 31.897 Q 128.307 31.131 131.902 29.986 A 301.236 301.236 0 0 1 134.25 29.25 Q 141.2 27.1 143 26.7 A 2.84 2.84 0 0 0 143.92 26.249 Q 145.939 24.876 150.2 19.55 A 319.126 319.126 0 0 0 152.058 17.207 Q 155.518 12.797 156.182 11.537 A 3.084 3.084 0 0 0 156.25 11.4 A 3.109 3.109 0 0 1 156.667 10.723 A 1.901 1.901 0 0 1 158.2 10 Q 159.442 10 160.913 11.416 A 10.057 10.057 0 0 1 161.05 11.55 A 9.662 9.662 0 0 1 161.719 12.286 Q 162.346 13.058 162.527 13.701 A 1.843 1.843 0 0 1 162.6 14.2 A 1.502 1.502 0 0 1 162.385 14.935 Q 161.927 15.748 160.5 16.7 Z M 229.2 36.4 L 234.7 35.4 A 12.431 12.431 0 0 0 235.234 35.255 Q 235.975 35.034 236.282 34.813 A 1.086 1.086 0 0 0 236.3 34.8 A 0.675 0.675 0 0 0 236.488 34.559 Q 236.713 34.115 236.75 33.05 Q 236.784 32.053 236.795 30.749 A 151.93 151.93 0 0 0 236.8 29.5 Q 236.8 27.4 236.9 22.2 Q 237 17 237.45 14.4 Q 237.818 12.271 238.153 11.45 A 2.073 2.073 0 0 1 238.3 11.15 A 1.351 1.351 0 0 1 238.745 10.694 Q 239.003 10.536 239.34 10.507 A 1.827 1.827 0 0 1 239.5 10.5 Q 240.143 10.5 242.37 11.082 A 84.01 84.01 0 0 1 243.55 11.4 A 15.076 15.076 0 0 1 244.655 11.748 Q 246.8 12.525 246.8 13.5 A 1.315 1.315 0 0 1 246.76 13.798 Q 246.65 14.262 246.239 15.028 A 12.702 12.702 0 0 1 246.2 15.1 A 7.498 7.498 0 0 0 245.631 16.669 Q 244.9 19.5 244.9 25.2 L 245.1 32.2 A 5.012 5.012 0 0 0 245.111 32.549 Q 245.153 33.142 245.35 33.3 Q 245.566 33.473 246.601 33.31 A 13.007 13.007 0 0 0 246.95 33.25 Q 247.984 33.059 249.75 32.896 A 78.487 78.487 0 0 1 250.9 32.8 Q 253.5 32.6 253.9 32.2 A 1.148 1.148 0 0 0 254.098 31.917 Q 254.342 31.45 254.487 30.491 A 11.393 11.393 0 0 0 254.5 30.4 Q 255.698 20.215 256.797 13.32 A 196.66 196.66 0 0 1 256.8 13.3 A 122.239 122.239 0 0 1 257.202 10.918 Q 258.05 6.203 258.7 5.35 Q 259.486 4.318 260.755 4.3 A 3.186 3.186 0 0 1 260.8 4.3 A 3.049 3.049 0 0 1 261.224 4.336 Q 261.964 4.442 263.358 4.866 A 43.493 43.493 0 0 1 263.95 5.05 Q 265.502 5.545 266.029 6.237 A 1.235 1.235 0 0 1 266.3 7 Q 266.3 7.703 266.094 8.165 A 1.448 1.448 0 0 1 265.7 8.7 Q 264.5 9.6 264.3 12.8 Q 264.2 15.3 263.5 17.25 Q 262.8 19.2 262.5 22.95 A 111.457 111.457 0 0 0 262.317 25.615 Q 262.244 26.926 262.217 28.077 A 55.54 55.54 0 0 0 262.2 29.4 Q 262.2 31.5 262.563 32.178 A 0.665 0.665 0 0 0 262.8 32.45 Q 263.384 32.79 266.522 32.8 A 60.206 60.206 0 0 0 266.7 32.8 A 44.309 44.309 0 0 0 271.403 32.54 A 52.498 52.498 0 0 0 273.65 32.25 A 171.465 171.465 0 0 1 274.92 32.063 Q 277.259 31.729 278.029 31.702 A 3.547 3.547 0 0 1 278.15 31.7 A 1.578 1.578 0 0 1 279.243 32.139 A 2.515 2.515 0 0 1 279.6 32.55 Q 280.095 33.251 281.031 35.549 A 77.986 77.986 0 0 1 281.45 36.6 A 42.906 42.906 0 0 1 281.937 37.904 Q 282.598 39.775 282.686 40.728 A 2.965 2.965 0 0 1 282.7 41 Q 282.7 43.8 281.1 43.8 A 2.704 2.704 0 0 1 280.571 43.738 Q 279.652 43.551 278 42.8 A 24.209 24.209 0 0 0 273.059 41.094 Q 270.611 40.513 267.699 40.24 A 59.181 59.181 0 0 0 262.2 40 A 3.606 3.606 0 0 0 261.799 40.021 Q 261.389 40.067 261.156 40.216 A 0.705 0.705 0 0 0 261 40.35 A 0.853 0.853 0 0 0 260.877 40.582 Q 260.66 41.136 260.377 42.779 A 56.716 56.716 0 0 0 260.25 43.55 A 49.489 49.489 0 0 1 259.513 47.303 A 42.242 42.242 0 0 1 259.1 48.9 Q 258.4 51.4 258.2 53.55 A 15.204 15.204 0 0 1 258.087 54.478 Q 257.871 55.864 257.45 56.4 A 1.767 1.767 0 0 1 256.419 57.035 A 2.776 2.776 0 0 1 255.8 57.1 Q 254.7 57.1 252.3 56.45 A 20.657 20.657 0 0 0 250.286 56.006 Q 249.047 55.8 247.95 55.8 A 9.506 9.506 0 0 0 245.411 56.131 A 8.508 8.508 0 0 0 244.35 56.5 Q 242.7 57.2 242 57.2 Q 239.763 57.2 238.755 52.043 A 26.131 26.131 0 0 1 238.7 51.75 Q 237.73 46.465 237.607 44.848 A 8.349 8.349 0 0 1 237.6 44.75 Q 237.504 43.26 237.084 42.786 A 0.83 0.83 0 0 0 237.05 42.75 A 1.015 1.015 0 0 0 236.587 42.49 Q 236.189 42.382 235.6 42.5 A 272.689 272.689 0 0 1 233.658 42.938 Q 231.219 43.478 229.96 43.697 A 17.467 17.467 0 0 1 229.3 43.8 Q 228.049 43.967 227.668 44.273 A 0.519 0.519 0 0 0 227.55 44.4 A 0.992 0.992 0 0 0 227.447 44.649 Q 227.325 45.075 227.304 45.969 A 16.581 16.581 0 0 0 227.3 46.35 A 11.558 11.558 0 0 0 227.341 47.236 Q 227.444 48.543 227.805 50.846 A 131.479 131.479 0 0 0 228.05 52.35 A 36.532 36.532 0 0 0 228.456 54.419 Q 228.952 56.586 229.608 57.951 A 7.526 7.526 0 0 0 230.05 58.75 A 29.376 29.376 0 0 1 230.896 60.149 Q 231.284 60.836 231.576 61.456 A 13.815 13.815 0 0 1 231.9 62.2 A 3.417 3.417 0 0 0 232.95 63.587 Q 233.402 63.955 234.012 64.248 A 7.59 7.59 0 0 0 234.6 64.5 Q 236.7 65.3 239.25 65.3 Q 241.342 65.3 246.599 64.997 A 557.363 557.363 0 0 0 249.05 64.85 A 244.992 244.992 0 0 0 252.425 64.619 Q 256.879 64.28 259.302 63.891 A 30.298 30.298 0 0 0 259.55 63.85 Q 262.15 63.41 263.214 63.322 A 5.494 5.494 0 0 1 263.65 63.3 A 3.012 3.012 0 0 1 264.357 63.379 A 2.297 2.297 0 0 1 265.1 63.7 Q 265.655 64.07 266.81 65.426 A 37.478 37.478 0 0 1 267 65.65 Q 268.3 67.2 268.7 68.25 A 5.197 5.197 0 0 1 268.936 69.095 Q 269.023 69.538 269.064 70.062 A 12.734 12.734 0 0 1 269.1 71.05 A 9.7 9.7 0 0 1 269.076 71.758 Q 268.991 72.92 268.6 73.35 A 1.634 1.634 0 0 1 267.699 73.852 A 2.438 2.438 0 0 1 267.2 73.9 A 5.476 5.476 0 0 1 266.579 73.861 Q 265.831 73.775 264.8 73.5 Q 261.903 72.727 254.435 72.701 A 151.095 151.095 0 0 0 253.9 72.7 Q 246 72.7 243.4 73.25 A 49.776 49.776 0 0 1 242.364 73.459 Q 240.664 73.78 239.986 73.752 A 2.199 2.199 0 0 1 239.95 73.75 Q 239.1 73.7 238.05 73.7 Q 237.236 73.7 235.851 73.85 A 52.735 52.735 0 0 0 235 73.95 Q 233.263 74.167 232.62 74.384 A 1.823 1.823 0 0 0 232.45 74.45 Q 231.9 74.7 231.4 74.7 A 1.688 1.688 0 0 1 230.162 74.125 Q 229.571 73.513 229.128 72.25 A 12.904 12.904 0 0 1 228.8 71.15 Q 228.122 68.474 227.585 66.934 A 15.475 15.475 0 0 0 227.25 66.05 A 27.037 27.037 0 0 0 226.846 65.142 Q 226.114 63.566 224.65 60.75 Q 222.7 57 221.85 53.95 A 44.112 44.112 0 0 1 220.985 50.266 A 36.132 36.132 0 0 1 220.65 48.15 A 61.663 61.663 0 0 0 220.564 47.501 Q 220.324 45.763 220.135 45.264 A 0.602 0.602 0 0 0 220.05 45.1 Q 219.825 44.83 219.234 44.803 A 2.967 2.967 0 0 0 219.1 44.8 Q 215 44.8 209.4 47.4 Q 207.6 48.3 206.6 48.3 A 0.998 0.998 0 0 1 206.027 48.087 Q 205.368 47.618 204.582 46.118 A 18.627 18.627 0 0 1 204.25 45.45 Q 203.183 43.197 202.959 42.225 A 1.972 1.972 0 0 1 202.9 41.8 A 1.231 1.231 0 0 1 203.017 41.254 Q 203.151 40.978 203.44 40.789 A 1.766 1.766 0 0 1 203.7 40.65 A 3.824 3.824 0 0 1 204.156 40.498 Q 205.246 40.189 208.314 39.614 A 232.919 232.919 0 0 1 209.75 39.35 Q 214.585 38.475 216.833 38.109 A 102.83 102.83 0 0 1 217.2 38.05 A 22.283 22.283 0 0 0 217.958 37.917 Q 219.437 37.629 219.693 37.309 A 0.334 0.334 0 0 0 219.7 37.3 Q 219.978 36.929 219.998 35.698 A 12.076 12.076 0 0 0 220 35.5 L 219.9 30.3 A 91.667 91.667 0 0 1 219.941 27.458 Q 220.02 24.92 220.25 23.05 Q 220.51 20.935 220.825 19.756 A 6.718 6.718 0 0 1 221.05 19.05 Q 221.374 18.222 221.802 17.99 A 0.721 0.721 0 0 1 222.15 17.9 A 2.273 2.273 0 0 1 222.511 17.939 Q 223.409 18.093 225.8 18.85 Q 228.075 19.57 228.625 20.262 A 0.705 0.705 0 0 1 228.8 20.7 A 4.769 4.769 0 0 1 228.747 21.376 Q 228.647 22.069 228.359 22.971 A 15.747 15.747 0 0 1 228.35 23 Q 227.979 24.154 227.642 27.314 A 99.343 99.343 0 0 0 227.5 28.75 A 194.263 194.263 0 0 0 227.33 30.702 Q 227.134 33.1 227.105 34.39 A 18.509 18.509 0 0 0 227.1 34.8 A 6.31 6.31 0 0 0 227.121 35.334 Q 227.196 36.212 227.543 36.429 A 0.475 0.475 0 0 0 227.8 36.5 Q 228.5 36.5 229.2 36.4 Z M 390.8 54.9 Q 390.8 55.9 388.3 56.8 A 14.287 14.287 0 0 1 385.748 57.446 Q 384.183 57.7 382.35 57.7 Q 379.709 57.7 377.683 57.319 A 15.45 15.45 0 0 1 376.5 57.05 A 30.912 30.912 0 0 0 374.641 56.604 Q 373.712 56.414 372.883 56.314 A 16.425 16.425 0 0 0 372.25 56.25 A 10.86 10.86 0 0 1 371.451 56.158 Q 370.682 56.037 370.218 55.819 A 1.657 1.657 0 0 1 369.8 55.55 Q 369.2 55 368.05 52.2 Q 366.9 49.4 364.95 47 Q 363.189 44.832 359.55 41.97 A 74.37 74.37 0 0 0 358.75 41.35 A 35.006 35.006 0 0 0 351.113 36.872 A 32.355 32.355 0 0 0 349.8 36.35 Q 346.312 35.051 344.201 34.716 A 8.41 8.41 0 0 0 342.9 34.6 A 12.582 12.582 0 0 0 342.014 34.629 Q 340.569 34.731 340.1 35.2 Q 339.539 35.761 337.27 38.424 A 419.072 419.072 0 0 0 336.95 38.8 A 49.601 49.601 0 0 0 336.083 39.846 Q 334.48 41.841 334.404 42.489 A 0.526 0.526 0 0 0 334.4 42.55 Q 334.4 43.3 334.95 43.75 A 2.863 2.863 0 0 0 335.267 43.968 Q 335.852 44.325 337.112 44.871 A 46.423 46.423 0 0 0 337.65 45.1 Q 339.8 46 340.1 46.5 A 1.281 1.281 0 0 1 340.224 46.809 Q 340.4 47.434 340.4 48.85 Q 340.4 50.7 339.75 55 A 76.244 76.244 0 0 1 339.419 57.019 Q 338.913 59.85 338.35 61.5 A 23.187 23.187 0 0 0 337.872 63.073 Q 337.667 63.851 337.553 64.546 A 11.381 11.381 0 0 0 337.45 65.35 Q 337.3 67 336.75 67.75 A 4.337 4.337 0 0 1 336.413 68.143 Q 335.626 68.977 333.55 70.7 A 26.437 26.437 0 0 1 331.275 72.402 Q 329.831 73.358 328.45 73.95 A 36.478 36.478 0 0 1 327.589 74.307 Q 326.216 74.854 325.521 74.969 A 2.001 2.001 0 0 1 325.2 75 Q 324.478 75 324.408 74.186 A 2.155 2.155 0 0 1 324.4 74 A 1.707 1.707 0 0 1 324.516 73.46 Q 324.941 72.251 326.932 69.445 A 68.009 68.009 0 0 1 327 69.35 A 47.48 47.48 0 0 0 328.61 66.947 Q 329.978 64.755 330.7 62.95 A 24.483 24.483 0 0 0 331.472 60.676 Q 331.814 59.495 332.112 58.116 A 54.67 54.67 0 0 0 332.55 55.85 A 83.233 83.233 0 0 0 332.858 53.943 Q 333.288 51.043 333.25 49.55 Q 333.211 48.01 333.015 47.125 A 4.241 4.241 0 0 0 332.9 46.7 A 2.891 2.891 0 0 0 332.765 46.36 Q 332.495 45.8 332.1 45.8 Q 331.723 45.8 330.547 47.309 A 26.666 26.666 0 0 0 330.4 47.5 Q 329.1 49.2 326.4 52.25 A 129.363 129.363 0 0 1 325.162 53.63 Q 323.405 55.558 322.5 56.35 A 20.906 20.906 0 0 0 321.88 56.913 Q 321.159 57.597 320.8 58.1 Q 320.421 58.631 319.926 59.796 A 28.377 28.377 0 0 0 319.6 60.6 Q 318.9 62.4 316.5 63.35 Q 314.252 64.24 311.215 64.296 A 22.34 22.34 0 0 1 310.8 64.3 Q 305.2 64.3 305.2 62.6 A 0.987 0.987 0 0 1 305.445 61.966 Q 305.785 61.549 306.6 61.2 Q 308.894 60.129 312.739 57.216 A 108.459 108.459 0 0 0 315.25 55.25 A 84.238 84.238 0 0 0 323.191 47.934 A 98.658 98.658 0 0 0 326.2 44.65 A 54.509 54.509 0 0 0 328.257 42.169 Q 331.108 38.495 331.453 36.358 A 3.513 3.513 0 0 0 331.5 35.8 A 2.649 2.649 0 0 0 330.788 33.989 A 3.705 3.705 0 0 0 330.5 33.7 Q 325.3 29.1 322.45 22.05 Q 320.15 16.359 319.706 12.786 A 12.93 12.93 0 0 1 319.6 11.2 A 2.656 2.656 0 0 1 319.659 10.624 Q 319.788 10.044 320.2 9.7 A 2.263 2.263 0 0 1 320.553 9.472 Q 321.453 8.981 324.008 8.114 A 84.275 84.275 0 0 1 324.05 8.1 A 59.249 59.249 0 0 1 326.673 7.285 Q 327.904 6.932 329.311 6.573 A 130.104 130.104 0 0 1 332.3 5.85 A 81.342 81.342 0 0 1 336.331 5.037 Q 338.577 4.639 341.129 4.294 A 156.451 156.451 0 0 1 344.3 3.9 Q 351.145 3.118 355.456 3.1 A 48.258 48.258 0 0 1 355.65 3.1 A 20.548 20.548 0 0 1 359.552 3.5 Q 362.384 4.049 365.65 5.35 A 34.033 34.033 0 0 1 367.57 6.178 Q 371.3 7.938 371.3 9.4 A 1.923 1.923 0 0 1 371.194 9.972 Q 370.907 10.871 369.838 12.42 A 29.058 29.058 0 0 1 369.5 12.9 A 28.275 28.275 0 0 0 368.136 15 Q 367.454 16.15 366.758 17.521 A 61.705 61.705 0 0 0 365.8 19.5 A 38.341 38.341 0 0 1 361.517 26.84 A 32.237 32.237 0 0 1 357.8 31 A 3.531 3.531 0 0 0 357.269 31.666 A 2.444 2.444 0 0 0 356.9 32.95 A 2.187 2.187 0 0 0 357.021 33.624 Q 357.319 34.535 358.35 35.85 Q 359.8 37.7 361.8 39 Q 364.823 41.042 366.51 42.451 A 20.892 20.892 0 0 1 367.2 43.05 Q 368.9 44.6 371 45.75 A 21.383 21.383 0 0 0 372.367 46.429 Q 373.886 47.123 376.117 47.939 A 98.746 98.746 0 0 0 377.55 48.45 Q 382 50 386.4 51.85 Q 389.705 53.24 390.528 54.263 A 1.042 1.042 0 0 1 390.8 54.9 Z M 42.5 48 L 16.1 48 Q 12.9 54.975 11.316 59.324 A 55.326 55.326 0 0 0 10.7 61.1 Q 9.2 65.7 9 70.4 Q 7.6 70.6 6.4 70.6 Q 0 70.6 0 65.5 A 5.51 5.51 0 0 1 0.32 64.056 Q 1.483 60.41 6.872 49.337 A 690.232 690.232 0 0 1 9.5 44 Q 18.5 26.1 26 8.6 A 19.894 19.894 0 0 0 25.133 7.407 Q 24.084 6.063 22.504 4.409 A 62.186 62.186 0 0 0 22.4 4.3 A 20.554 20.554 0 0 1 24.018 2.469 Q 26.502 0 28.7 0 Q 30.702 0 32.703 2.634 A 14.393 14.393 0 0 1 32.9 2.9 A 21.995 21.995 0 0 1 34.208 4.964 Q 35.731 7.659 37.4 11.9 Q 44.875 30.947 49.999 42.942 A 391.149 391.149 0 0 0 53.65 51.25 A 188.802 188.802 0 0 0 55.747 55.712 Q 59.115 62.623 61.386 65.488 A 9.924 9.924 0 0 0 62.6 66.8 Q 59.1 70.6 55.9 70.6 A 3.724 3.724 0 0 1 53.915 69.964 Q 52.552 69.108 51.118 67.099 A 26.123 26.123 0 0 1 49.75 64.95 Q 47.036 60.231 43.798 51.571 A 216.84 216.84 0 0 1 42.5 48 Z M 84.3 6 L 83.7 23 A 440.538 440.538 0 0 0 83.3 41.219 A 405.761 405.761 0 0 0 83.3 41.5 A 233.093 233.093 0 0 0 83.409 48.895 Q 83.776 60.408 85.378 65.624 A 12.237 12.237 0 0 0 86.4 68.1 A 32.565 32.565 0 0 1 83.502 69.443 Q 80.525 70.636 78.244 70.697 A 9.121 9.121 0 0 1 78 70.7 A 5.927 5.927 0 0 1 76.635 70.552 A 3.962 3.962 0 0 1 74.7 69.5 A 2.524 2.524 0 0 1 74.182 68.655 Q 73.617 67.261 73.52 64.23 A 41.601 41.601 0 0 1 73.5 62.9 Q 73.5 60.186 73.804 53.82 A 750.328 750.328 0 0 1 73.95 50.9 A 298.707 298.707 0 0 0 74.224 43.883 Q 74.4 37.625 74.4 30 Q 74.4 12.292 72.525 5.521 A 11.252 11.252 0 0 0 71.4 2.7 A 25.053 25.053 0 0 1 74.456 1.22 Q 77.272 0.1 79.7 0.1 Q 81.245 0.1 82.237 0.635 A 3.07 3.07 0 0 1 83.25 1.5 Q 84.206 2.774 84.292 5.457 A 16.992 16.992 0 0 1 84.3 6 Z M 356.778 46.289 A 6.87 6.87 0 0 0 356.8 45.8 A 5.94 5.94 0 0 0 356.784 45.356 Q 356.743 44.809 356.597 44.361 A 2.644 2.644 0 0 0 355.7 43.05 Q 354.908 42.438 353.366 41.982 A 18.127 18.127 0 0 0 352.05 41.65 A 59.597 59.597 0 0 0 351.877 41.613 Q 349.464 41.1 348.45 41.1 A 2.263 2.263 0 0 0 348.342 41.102 Q 347.4 41.147 347.4 42 A 3.685 3.685 0 0 0 347.407 42.225 Q 347.443 42.811 347.658 43.63 A 15.609 15.609 0 0 0 347.9 44.45 A 5.481 5.481 0 0 1 348.033 44.956 Q 348.322 46.278 348.468 49.1 A 93.529 93.529 0 0 1 348.55 51.2 A 92.629 92.629 0 0 0 348.579 52.069 Q 348.783 57.393 349.75 68.95 Q 350.8 81.5 351.3 82.9 A 3.743 3.743 0 0 0 351.342 83.011 Q 351.481 83.366 351.67 83.623 A 1.567 1.567 0 0 0 353 84.3 A 3.714 3.714 0 0 0 353.743 84.229 A 2.6 2.6 0 0 0 354.95 83.65 A 2.786 2.786 0 0 0 355.532 82.953 A 3.111 3.111 0 0 0 355.9 81.95 A 2.003 2.003 0 0 0 355.917 81.846 Q 356.1 80.491 356.1 71.25 Q 356.1 63.711 356.039 60.322 A 95.254 95.254 0 0 0 356 58.75 A 235.733 235.733 0 0 1 355.959 57.477 Q 355.919 56.147 355.906 55.122 A 73.628 73.628 0 0 1 355.9 54.2 A 13.856 13.856 0 0 1 355.902 53.947 Q 355.922 52.848 356.113 51.295 A 53.653 53.653 0 0 1 356.35 49.6 A 102.296 102.296 0 0 0 356.5 48.605 Q 356.72 47.089 356.778 46.289 Z M 156.655 1.387 A 3.531 3.531 0 0 0 153.9 0.1 A 5.008 5.008 0 0 0 153.511 0.115 A 5.851 5.851 0 0 0 152.65 0.25 Q 152 0.4 147.5 2.35 Q 144.969 3.447 142.786 4.48 A 107.308 107.308 0 0 0 139.6 6.05 A 76.742 76.742 0 0 1 136.966 7.341 A 91.818 91.818 0 0 1 132.2 9.4 A 25.414 25.414 0 0 0 129.739 10.542 A 28.856 28.856 0 0 0 124.6 14.05 Q 121.703 16.504 121.137 17.405 A 0.725 0.725 0 0 0 121 17.75 Q 121 18.283 121.942 18.379 A 4.554 4.554 0 0 0 122.4 18.4 Q 123.275 18.4 124.306 18.107 A 11.661 11.661 0 0 0 125.6 17.65 Q 127.063 17.041 132.486 16.002 A 239.135 239.135 0 0 1 135.2 15.5 Q 136.063 15.356 136.563 15.161 A 2.239 2.239 0 0 0 136.9 15 Q 137.4 14.7 137.7 13.8 Q 138.326 11.853 140.281 10.511 A 11.214 11.214 0 0 1 142.25 9.45 Q 145.9 7.9 150.65 6.95 A 130.78 130.78 0 0 1 152.281 6.634 Q 155.675 6 156.9 6 A 3.463 3.463 0 0 0 157.367 5.971 Q 158.4 5.83 158.4 5 A 2.37 2.37 0 0 0 158.31 4.394 Q 158.146 3.78 157.682 2.939 A 15.63 15.63 0 0 0 157.15 2.05 A 5.51 5.51 0 0 0 156.655 1.387 Z M 29.9 16.5 L 19.3 41.3 L 39.9 41.3 Q 34.79 27.783 31.31 19.7 A 192.003 192.003 0 0 0 29.9 16.5 Z M 169.8 33.2 A 2.937 2.937 0 0 0 169.142 31.382 Q 168.441 30.469 166.994 29.674 A 11.908 11.908 0 0 0 166.95 29.65 A 12.339 12.339 0 0 0 163.38 28.397 Q 161.874 28.105 160.155 28.1 A 20.593 20.593 0 0 0 160.1 28.1 A 21.825 21.825 0 0 0 154.247 28.927 A 26.498 26.498 0 0 0 151.9 29.7 Q 147.7 31.3 146.45 33.05 A 11.995 11.995 0 0 0 145.903 33.881 Q 145.2 35.063 145.2 35.85 A 0.871 0.871 0 0 0 145.72 36.683 Q 146.107 36.877 146.782 36.897 A 5.416 5.416 0 0 0 146.95 36.9 A 7.249 7.249 0 0 0 149.575 36.394 A 8.979 8.979 0 0 0 150.45 36 Q 152.2 35.1 154.3 35.1 Q 156.4 35.1 157.35 36.1 Q 158.3 37.1 158.8 38.4 A 4.825 4.825 0 0 0 159.072 38.946 Q 159.575 39.8 160.2 39.8 A 3.568 3.568 0 0 0 160.989 39.691 Q 162.283 39.389 164.682 38.247 A 58.049 58.049 0 0 0 165.7 37.75 Q 169.8 35.7 169.8 33.2 Z M 334 28.6 A 7.907 7.907 0 0 0 334.751 28.561 Q 335.587 28.481 336.692 28.236 A 25.582 25.582 0 0 0 336.85 28.2 A 90.182 90.182 0 0 0 337.459 28.059 Q 338.675 27.772 339 27.65 A 0.62 0.62 0 0 0 339.257 27.458 Q 339.47 27.201 339.6 26.65 A 7.438 7.438 0 0 0 339.787 25.406 A 6.563 6.563 0 0 0 339.8 25 A 3.531 3.531 0 0 0 339.738 24.307 Q 339.52 23.225 338.537 23.113 A 2.098 2.098 0 0 0 338.3 23.1 A 3.405 3.405 0 0 0 337.075 23.334 A 4.181 4.181 0 0 0 336.7 23.5 A 4.859 4.859 0 0 1 336.185 23.724 Q 335.927 23.817 335.693 23.861 A 2.128 2.128 0 0 1 335.3 23.9 Q 334 23.9 333.3 22.15 Q 332.6 20.4 332.6 18.8 Q 332.6 17.398 333.752 17.032 A 2.522 2.522 0 0 1 334.1 16.95 Q 335.389 16.735 336.937 16.188 A 25.006 25.006 0 0 0 337.45 16 A 4.735 4.735 0 0 0 338.216 15.636 Q 338.605 15.402 338.855 15.118 A 1.715 1.715 0 0 0 339.3 13.95 A 4.101 4.101 0 0 0 338.502 11.522 A 5.041 5.041 0 0 0 338.45 11.45 A 3.653 3.653 0 0 0 337.923 10.869 Q 337.273 10.3 336.5 10.3 A 3.499 3.499 0 0 0 335.883 10.366 Q 334.902 10.546 333.165 11.216 A 42.891 42.891 0 0 0 332.45 11.5 A 34.887 34.887 0 0 0 331.426 11.934 Q 329.834 12.642 329.188 13.169 A 1.932 1.932 0 0 0 328.9 13.45 Q 328.398 14.077 328.316 15.543 A 10.859 10.859 0 0 0 328.3 16.15 Q 328.3 18.1 329.75 22.4 Q 330.895 25.796 331.479 27.102 A 6.133 6.133 0 0 0 331.75 27.649 A 1.695 1.695 0 0 0 332.601 28.368 Q 333.16 28.6 334 28.6 Z M 358.6 11.7 A 3.784 3.784 0 0 0 357.185 8.681 A 5.742 5.742 0 0 0 356.35 8.1 Q 354.1 6.8 351.5 6.8 A 13.116 13.116 0 0 0 350.492 6.836 Q 348.935 6.956 348.4 7.486 A 1.033 1.033 0 0 0 348.3 7.6 Q 347.87 8.173 347.594 9.107 A 9.085 9.085 0 0 0 347.4 9.9 A 34.189 34.189 0 0 0 347.276 10.551 Q 347.131 11.357 347.105 11.785 A 2.802 2.802 0 0 0 347.1 11.95 Q 347.1 12.383 347.566 12.724 A 2.381 2.381 0 0 0 347.85 12.9 A 3.815 3.815 0 0 0 348.307 13.1 Q 349.061 13.381 350.487 13.685 A 38.896 38.896 0 0 0 350.8 13.75 A 3.844 3.844 0 0 1 351.737 14.059 Q 352.808 14.589 352.971 15.759 A 3.193 3.193 0 0 1 353 16.2 A 3.397 3.397 0 0 1 352.755 17.506 A 3.184 3.184 0 0 1 352.05 18.55 A 5.597 5.597 0 0 1 351.204 19.234 Q 350.388 19.781 349.2 20.25 A 4.425 4.425 0 0 0 348.369 20.675 Q 347.91 20.981 347.648 21.37 A 2.064 2.064 0 0 0 347.3 22.55 A 12.968 12.968 0 0 0 347.324 23.363 Q 347.374 24.164 347.532 24.697 A 3.04 3.04 0 0 0 347.6 24.9 Q 347.9 25.7 348.8 25.7 Q 350.7 25.7 352 24.9 Q 353.099 24.224 354.448 22.405 A 24.265 24.265 0 0 0 354.95 21.7 Q 356.6 19.3 357.6 16.5 A 21.666 21.666 0 0 0 358.169 14.67 Q 358.408 13.75 358.515 12.937 A 9.556 9.556 0 0 0 358.6 11.7 Z M 118.3 44.4 L 118.4 47.4 Q 118.4 49 117.4 49 Q 116.4 49 114.05 48.05 Q 111.904 47.182 110.759 46.398 A 7.087 7.087 0 0 1 110.55 46.25 Q 109.4 45.4 109.4 44.6 A 2.71 2.71 0 0 1 109.725 43.39 Q 110.497 41.855 113.1 39.85 Q 116.075 37.559 117.434 37.109 A 1.857 1.857 0 0 1 118 37 Q 119.082 37 119.189 38.221 A 3.233 3.233 0 0 1 119.2 38.5 A 4.369 4.369 0 0 1 119.114 39.333 Q 119.004 39.902 118.75 40.55 A 4.664 4.664 0 0 0 118.538 41.295 Q 118.376 42.072 118.324 43.227 A 26.318 26.318 0 0 0 118.3 44.4 Z M 252.9 44.8 L 253.3 40.7 A 0.741 0.741 0 0 0 252.835 39.991 Q 252.438 39.8 251.7 39.8 A 50.068 50.068 0 0 0 250.288 39.819 Q 248.3 39.875 247.1 40.1 Q 245.5 40.4 245.25 40.7 A 0.598 0.598 0 0 0 245.16 40.897 Q 245.005 41.399 244.895 42.979 A 51.583 51.583 0 0 0 244.85 43.7 A 512.611 512.611 0 0 0 244.799 44.632 Q 244.714 46.222 244.702 46.682 A 4.844 4.844 0 0 0 244.7 46.8 Q 244.7 49.1 246.9 49.1 A 7.486 7.486 0 0 0 248.491 48.921 A 10.176 10.176 0 0 0 249.9 48.5 A 10.468 10.468 0 0 0 250.711 48.159 Q 251.484 47.792 251.916 47.391 A 2.352 2.352 0 0 0 252.1 47.2 A 2.384 2.384 0 0 0 252.449 46.637 Q 252.709 46.069 252.846 45.194 A 10.304 10.304 0 0 0 252.9 44.8 Z M 133.523 21.257 A 1.489 1.489 0 0 0 133.6 20.8 Q 133.6 19.839 132.542 19.648 A 3.342 3.342 0 0 0 131.95 19.6 Q 130.945 19.6 129.791 19.916 A 12.966 12.966 0 0 0 128.25 20.45 A 15.897 15.897 0 0 0 128.052 20.534 Q 126.843 21.054 126.076 21.63 A 4.474 4.474 0 0 0 125.35 22.3 Q 124.832 22.909 124.333 23.277 A 3.309 3.309 0 0 1 123.7 23.65 Q 122.9 24 122.85 25 Q 122.8 26 125.25 27.5 Q 127.126 28.648 128.093 28.918 A 1.941 1.941 0 0 0 128.6 29 Q 129.5 29 129.8 28.2 Q 131.2 24.9 133.2 21.9 Q 133.425 21.563 133.523 21.257 Z M 145.4 18.2 L 143.1 22 A 2.055 2.055 0 0 1 142.758 22.422 A 1.364 1.364 0 0 1 141.8 22.8 A 1.124 1.124 0 0 1 141.318 22.673 Q 140.617 22.335 139.6 21.1 A 17.479 17.479 0 0 1 139.124 20.498 Q 138.399 19.533 138.243 18.976 A 1.033 1.033 0 0 1 138.2 18.7 Q 138.2 18 138.95 17.75 A 6.504 6.504 0 0 0 139.81 17.39 A 8.502 8.502 0 0 0 140.5 17 A 138.338 138.338 0 0 1 141.684 16.273 Q 144.866 14.345 145.925 13.983 A 1.271 1.271 0 0 1 146.3 13.9 Q 146.844 13.9 147.018 14.131 A 0.434 0.434 0 0 1 147.1 14.4 A 1.893 1.893 0 0 1 147.019 14.889 Q 146.796 15.689 145.967 17.202 A 39.81 39.81 0 0 1 145.4 18.2 Z" vector-effect="non-scaling-stroke"/></g></svg>